<svg width="81" height="65" viewBox="0 0 81 65" fill="none" xmlns="http://www.w3.org/2000/svg">
<path d="M80.5 30.4813V34.2724C79.4013 34.7268 78.3037 35.0232 77.3753 35.5953C75.3223 36.8594 74.2236 38.8853 73.4433 41.0902C72.4413 43.9209 71.9208 46.8472 71.8326 49.847C71.7676 52.0678 71.7554 54.2898 71.7052 56.5117C71.6268 59.9635 69.3313 63.2242 65.9052 64.0939C65.2646 64.2568 64.5799 64.3107 63.916 64.3107C48.3609 64.3218 32.8046 64.2789 17.2495 64.3463C13.6103 64.3622 10.4231 61.8058 9.58527 58.3062C9.41746 57.6031 9.35376 56.8633 9.33539 56.1369C9.29742 54.7087 9.35621 53.278 9.31824 51.851C9.21657 48.0219 8.82093 44.2468 7.40739 40.6321C6.48136 38.2631 5.205 36.2212 2.81154 35.1114C2.23093 34.8419 1.58541 34.6925 0.954579 34.5578C0.637328 34.4904 0.495239 34.4132 0.500139 34.0678C0.517288 33.0266 0.512388 31.9855 0.500139 30.9443C0.496464 30.6332 0.563834 30.4849 0.923957 30.4323C3.2819 30.0844 4.9931 28.7493 6.22168 26.7772C7.71974 24.3751 8.36404 21.6766 8.8393 18.923C9.44685 15.4063 9.22392 11.8553 9.34764 8.31781C9.49218 4.15313 12.8264 0.647448 16.9788 0.653572C32.698 0.678071 48.416 0.657247 64.1353 0.657247C67.5797 0.657247 70.6248 3.16463 71.4479 6.71318C71.6109 7.41751 71.6758 8.15735 71.6917 8.88249C71.7272 10.454 71.6611 12.0268 71.7125 13.5972C71.8264 17.0783 72.1866 20.535 73.4445 23.8117C73.9566 25.1431 74.6254 26.455 75.446 27.6187C76.6317 29.2992 78.3503 30.2559 80.4988 30.4813H80.5ZM46.5309 31.4649C47.065 31.2664 47.6284 31.0962 48.1576 30.8536C50.9565 29.5699 52.9237 26.2137 52.4594 22.926C52.1434 20.6894 51.1843 18.8753 49.4021 17.512C47.561 16.1045 45.4089 15.4774 43.1428 15.4419C38.3889 15.3659 33.6326 15.4161 28.8788 15.4174C28.6816 15.4174 28.4831 15.4382 28.2626 15.4517V49.5555H29.0221C32.7776 49.5555 36.532 49.5665 40.2875 49.5494C41.6509 49.5433 43.0154 49.5102 44.3751 49.4244C46.3018 49.3032 48.1355 48.7985 49.81 47.8235C51.5873 46.7897 52.8918 45.3406 53.6109 43.3759C54.189 41.797 54.385 40.1838 54.1363 38.535C53.8558 36.6744 53.0474 35.0734 51.6437 33.775C50.1836 32.424 48.4319 31.7637 46.5309 31.4636V31.4649Z" fill="#27AE60"/>
<path d="M33.8398 45.1228V34.1391C34.075 34.1244 34.2906 34.0974 34.505 34.0986C37.0552 34.1035 39.6079 34.0447 42.1533 34.1452C43.862 34.2113 45.5352 34.5678 46.9022 35.7572C47.7046 36.4554 48.2055 37.3238 48.3599 38.3552C48.6416 40.2452 48.4199 42.0213 46.9047 43.3981C45.8525 44.3548 44.5259 44.8178 43.1798 44.895C40.0942 45.0701 36.9989 45.0579 33.8411 45.124L33.8398 45.1228Z" fill="#27AE60"/>
<path d="M33.845 29.8231V19.9467C34.0679 19.9345 34.2639 19.9149 34.4611 19.9149C36.8068 19.9124 39.1562 19.8414 41.497 19.9467C42.5259 19.9932 43.6124 20.2431 44.5421 20.6792C46.2643 21.4852 46.9037 23.0053 46.8767 24.8855C46.8425 27.1932 45.3934 28.6374 43.7091 29.2094C42.6471 29.5696 41.4994 29.7876 40.3786 29.8403C38.3024 29.9395 36.2188 29.8709 34.1377 29.8697C34.0593 29.8697 33.9809 29.8464 33.845 29.8256V29.8231Z" fill="#27AE60"/>
</svg>
