<svg width="81" height="79" viewBox="0 0 81 79" fill="none" xmlns="http://www.w3.org/2000/svg">
<path d="M40.5 0.487793C18.4 0.487793 0.500006 18.3878 0.500006 40.4878C0.495469 48.8849 3.13526 57.0702 8.04487 63.8825C12.9545 70.6948 19.8846 75.7881 27.852 78.4398C29.852 78.7878 30.6 77.5878 30.6 76.5358C30.6 75.5878 30.548 72.4398 30.548 69.0878C20.5 70.9398 17.9 66.6398 17.1 64.3878C16.648 63.2358 14.7 59.6878 13 58.7358C11.6 57.9878 9.6 56.1358 12.948 56.0878C16.1 56.0358 18.348 58.9878 19.1 60.1878C22.7 66.2358 28.452 64.5358 30.748 63.4878C31.1 60.8878 32.148 59.1398 33.3 58.1398C24.4 57.1398 15.1 53.6878 15.1 38.3878C15.1 34.0358 16.648 30.4398 19.2 27.6358C18.8 26.6358 17.4 22.5358 19.6 17.0358C19.6 17.0358 22.948 15.9878 30.6 21.1398C33.8563 20.236 37.2207 19.7812 40.6 19.7878C44 19.7878 47.4 20.2358 50.6 21.1358C58.248 15.9358 61.6 17.0398 61.6 17.0398C63.8 22.5398 62.4 26.6398 62 27.6398C64.548 30.4398 66.1 33.9878 66.1 38.3878C66.1 53.7398 56.752 57.1398 47.852 58.1398C49.3 59.3878 50.552 61.7878 50.552 65.5398C50.552 70.8878 50.5 75.1878 50.5 76.5398C50.5 77.5878 51.252 78.8358 53.252 78.4358C61.1921 75.755 68.0917 70.6518 72.9796 63.8444C77.8675 57.037 80.4977 48.8682 80.5 40.4878C80.5 18.3878 62.6 0.487793 40.5 0.487793Z" fill="#27AE60"/>
</svg>
