<svg width="36" height="36" viewBox="0 0 36 36" fill="none" xmlns="http://www.w3.org/2000/svg">
<path d="M17.4375 6.75C10.9111 6.75 5.625 11.9117 5.625 18.2846C5.625 23.3886 9.00633 27.6996 13.7018 29.228C14.2924 29.3289 14.5139 28.9829 14.5139 28.6801C14.5139 28.4061 14.4991 27.4978 14.4991 26.5318C11.5313 27.0652 10.7634 25.8253 10.5272 25.1765C10.3943 24.8448 9.81844 23.8211 9.31641 23.5472C8.90297 23.3309 8.31234 22.7975 9.30164 22.783C10.2319 22.7686 10.8963 23.6193 11.1178 23.9653C12.1809 25.7099 13.879 25.2197 14.5582 24.9169C14.6616 24.1672 14.9716 23.6625 15.3112 23.3742C12.683 23.0858 9.93656 22.091 9.93656 17.679C9.93656 16.4246 10.3943 15.3865 11.1473 14.5791C11.0292 14.2907 10.6158 13.1084 11.2655 11.5224C11.2655 11.5224 12.2548 11.2196 14.5139 12.7047C15.4589 12.4452 16.463 12.3154 17.467 12.3154C18.4711 12.3154 19.4752 12.4452 20.4202 12.7047C22.6793 11.2052 23.6686 11.5224 23.6686 11.5224C24.3183 13.1084 23.9048 14.2907 23.7867 14.5791C24.5398 15.3865 24.9975 16.4102 24.9975 17.679C24.9975 22.1054 22.2363 23.0858 19.608 23.3742C20.0363 23.7346 20.4054 24.4267 20.4054 25.5081C20.4054 27.0508 20.3906 28.2908 20.3906 28.6801C20.3906 28.9829 20.6121 29.3433 21.2027 29.228C23.5479 28.4551 25.5857 26.9835 27.0293 25.0204C28.4729 23.0572 29.2496 20.7014 29.25 18.2846C29.25 11.9117 23.9639 6.75 17.4375 6.75Z" fill="#535353"/>
</svg>
