<svg width="71" height="81" viewBox="0 0 71 81" fill="none" xmlns="http://www.w3.org/2000/svg">
<path d="M8.10018 50.15C7.15018 53.9 7.80018 57.2999 9.90018 60.3999C11.2002 62.3499 12.9502 63.7999 15.0502 64.7999C15.4002 64.9499 15.9502 65 16.3002 64.9C21.0502 63.2999 25.2502 60.75 28.8002 57.2C30.8002 55.2 32.5002 52.9499 34.3002 50.6999C34.7502 50.1499 35.1502 50.0499 35.7502 50.0499C40.5502 50.0999 44.3502 47.6 45.9502 43.25C45.9502 43.15 46.0502 43.0499 46.0502 42.9999C46.4502 41.7999 47.3002 41.2 48.6002 41.2C49.7502 41.2 50.8502 41.2 52.0002 41.2C52.5502 41.2 52.8002 41.3999 52.9502 41.9499C54.5502 48.8999 61.7502 52.15 68.0502 48.8499C68.3002 48.7499 68.5002 48.6 68.8002 48.45C70.3502 51.8499 70.5002 55.2999 68.9502 58.65C67.0002 62.9 63.4502 65.0499 59.0502 65.8999C55.8502 66.5499 52.6002 66.9499 49.4502 67.5499C44.9502 68.3999 40.8002 70.1999 36.6502 72.1499C31.5502 74.5499 26.4502 76.9999 21.2502 79.1499C17.9002 80.5499 14.3502 81 10.7002 80.0999C4.55018 78.5499 0.750177 73.75 0.500177 67.4C0.300177 62.4499 1.60018 57.9 3.75018 53.5C4.30018 52.4 4.85018 51.2999 5.35018 50.1999C5.60018 49.6499 5.85018 49.45 6.45018 49.7C6.95018 49.9 7.50018 50 8.10018 50.15Z" fill="#27AE60"/>
<path d="M28.5503 0.5H70.5003C70.0503 1.85 69.6503 3.05 69.2503 4.3C66.4503 12.6 63.6003 20.9 60.7503 29.2C60.6503 29.55 60.1503 29.85 59.8003 29.95C59.6503 29.95 59.2003 29.6 59.0503 29.3C56.0003 23.15 53.0003 17.05 50.0003 10.9C49.9003 10.65 49.7503 10.4 49.5003 10C49.1003 10.75 48.8003 11.3 48.5003 11.85C45.6503 17.65 42.8003 23.4 39.9003 29.2C39.7503 29.5 39.3503 29.85 39.1003 29.8C38.7503 29.7 38.2503 29.4 38.1503 29.1C34.9503 19.75 31.8003 10.45 28.6503 1.1C28.6003 0.95 28.6003 0.8 28.5503 0.55V0.5Z" fill="#27AE60"/>
<path d="M49.6003 19.55C50.5003 21.35 51.3503 23.1 52.1503 24.8C53.3003 27.1 54.4503 29.4 55.5003 31.75C55.6003 32 55.5003 32.45 55.4003 32.75C54.7003 34 54.0003 35.2 53.2503 36.4C53.1003 36.65 52.7003 36.95 52.4503 36.95C50.6003 36.95 48.7003 36.95 46.8503 36.95C46.5503 36.95 46.2003 36.65 46.0503 36.35C45.2503 35.1 44.4503 33.8 43.6503 32.55C43.5003 32.3 43.3503 31.9 43.4503 31.65C45.4003 27.7 47.3503 23.75 49.3003 19.8C49.3003 19.75 49.4003 19.7 49.5503 19.55H49.6003Z" fill="#27AE60"/>
<path d="M9.55029 33.75C12.9003 33.75 15.6003 36.5 15.5503 39.9C15.5503 43.25 12.8003 45.9 9.30029 45.9C6.10029 45.9 3.30029 43.1 3.30029 39.9C3.30029 36.4 6.00029 33.75 9.50029 33.75H9.55029Z" fill="#27AE60"/>
<path d="M42.3502 39.8001C42.3502 43.2001 39.6002 45.9001 36.1502 45.9001C32.9002 45.9001 30.2002 43.1001 30.2002 39.9001C30.2002 36.4001 32.9502 33.6001 36.3502 33.6501C39.7002 33.6501 42.3502 36.4501 42.3502 39.8001Z" fill="#27AE60"/>
<path d="M69.1002 39.8499C69.1002 43.1999 66.3502 45.9499 63.0002 45.8999C59.6002 45.8999 56.9502 43.0999 56.9502 39.6499C56.9502 36.3499 59.7502 33.6499 63.0502 33.6499C66.4002 33.6499 69.1502 36.4499 69.1002 39.8499Z" fill="#27AE60"/>
</svg>
