<svg width="1161" height="104" viewBox="0 0 1161 104" fill="none" xmlns="http://www.w3.org/2000/svg">
<g clip-path="url(#clip0_77_1468)">
<path d="M0 21.6623H17.0643V104H0V21.6623Z" fill="white"/>
<path d="M108.981 83.0738L133.583 21.6623H151.694L117.461 104H100.397L66.2681 21.6623H84.3793L108.981 83.0738Z" fill="white"/>
<path d="M337.203 104H320.139V21.6623H337.203L373.739 76.0283H374.577V21.6623H391.641V104H374.577L338.04 49.634H337.203V104Z" fill="white"/>
<path d="M236.702 21.6623H219.637L185.404 104H203.515L228.117 42.5885L252.719 104H270.935L236.702 21.6623Z" fill="white"/>
<path d="M228.745 0H248.846L235.55 13.9858H222.778L228.745 0Z" fill="white"/>
<path d="M473.613 20.6107H499.157C508.055 20.6107 514.965 23.0293 519.99 27.8665C525.015 32.7037 527.632 38.8028 527.632 46.1638C527.632 53.5248 525.224 59.9393 520.199 64.6714C515.174 69.5086 508.265 71.822 499.261 71.822H479.266V102.738H473.717V20.6107H473.613ZM479.161 66.7745H499.366C513.29 66.7745 522.084 58.8878 522.084 46.269C522.084 33.6502 513.29 25.9737 499.366 25.9737H479.161V66.8797V66.7745Z" fill="white"/>
<path d="M633.054 102.843H627.191L617.56 80.7604H572.648L563.017 102.843H557.154L592.853 20.6107H597.146L632.949 102.843H633.054ZM595.156 28.7078L574.742 75.9232H615.675L595.261 28.7078H595.156Z" fill="white"/>
<path d="M671.265 20.6107V97.5854H710.524V102.843H665.717V20.6107H671.161H671.265Z" fill="white"/>
<path d="M816.678 102.843H810.816L801.184 80.7604H756.273L746.641 102.843H740.779L776.478 20.6107H780.77L816.573 102.843H816.678ZM778.781 28.7078L758.366 75.9232H799.3L778.886 28.7078H778.781Z" fill="white"/>
<path d="M912.469 90.2245L916.237 94.1153C908.281 100.845 899.278 104.105 889.123 104.105C868.499 104.105 847.561 86.6491 847.561 61.8321C847.561 37.0152 868.499 19.5591 889.123 19.5591C899.068 19.5591 908.072 22.819 916.028 29.3387L912.364 33.4398C905.768 27.7614 898.231 25.0273 889.542 25.0273C880.224 25.0273 871.745 28.4975 864.312 35.6481C856.983 42.6936 853.215 51.5268 853.215 61.9373C853.215 72.3478 856.983 81.181 864.312 88.2265C871.745 95.272 880.224 98.7422 889.542 98.7422C898.336 98.7422 905.873 95.9029 912.469 90.3296V90.2245Z" fill="white"/>
<path d="M950.68 20.6107H956.124V102.843H950.68V20.6107Z" fill="white"/>
<path d="M1033.28 19.454C1040.19 19.454 1046.68 21.2416 1053.07 24.7118C1059.35 28.0768 1064.48 33.1244 1068.66 39.8544C1072.75 46.4793 1074.84 53.7351 1074.84 61.727C1074.84 69.7189 1072.75 76.9747 1068.66 83.7047C1060.6 96.8493 1046.99 104 1033.38 104C1026.47 104 1019.77 102.212 1013.49 98.8473C1007.32 95.3771 1002.08 90.2245 997.895 83.7047C993.707 77.185 991.823 69.8241 991.823 61.727C991.823 53.6299 993.812 46.3741 997.895 39.7492C1006.17 26.6046 1019.46 19.454 1033.28 19.454ZM1008.36 88.1213C1015.69 95.0617 1024.07 98.5318 1033.28 98.5318C1042.49 98.5318 1050.66 95.0617 1058.09 88.1213C1065.42 81.0758 1069.19 72.2427 1069.19 61.727C1069.19 51.2113 1065.42 42.3781 1058.09 35.4378C1050.76 28.3923 1042.49 24.817 1033.28 24.817C1024.07 24.817 1015.69 28.2871 1008.36 35.4378C1001.04 42.3781 997.371 51.2113 997.371 61.727C997.371 72.2427 1001.04 81.0758 1008.36 88.1213Z" fill="white"/>
<path d="M1134.2 19.454C1140.17 19.454 1145.4 21.1365 1149.8 24.5015C1154.2 27.7614 1157.23 31.8625 1158.91 36.8048L1154.72 38.908C1150.95 30.0748 1143.94 24.5015 1134.3 24.5015C1123.94 24.5015 1116.4 30.4954 1116.4 39.5389C1116.4 46.7947 1121.53 52.4732 1131.79 56.364L1137.86 58.6774C1141.84 60.2548 1144.88 61.6218 1147.08 62.6734C1149.27 63.725 1151.47 65.092 1153.99 66.8797C1159.01 70.2447 1161 74.9767 1161 81.181C1161 87.911 1158.38 93.3792 1153.25 97.5854C1148.23 101.792 1142.05 103.895 1134.72 103.895C1128.13 103.895 1122.37 102.002 1117.14 98.2164C1112.01 94.4307 1108.76 89.5935 1107.29 83.8099L1112.11 81.8119C1114.94 92.0121 1123.84 98.7421 1134.72 98.7421C1140.48 98.7421 1145.3 97.0596 1149.38 93.9049C1153.46 90.6451 1155.45 86.4388 1155.45 81.181C1155.45 77.0799 1153.78 73.7148 1152 71.7169C1151.16 70.6653 1149.8 69.6137 1147.81 68.5622L1142.89 66.1436C1141.63 65.5126 1139.75 64.8817 1137.03 63.8301L1130.01 61.096C1117.24 56.0485 1110.85 48.7927 1110.85 39.4338C1110.85 33.545 1113.05 28.7078 1117.55 25.0273C1122.06 21.3468 1127.6 19.3488 1134.3 19.3488L1134.2 19.454Z" fill="white"/>
</g>
<defs>
<clipPath id="clip0_77_1468">
<rect width="1161" height="104" fill="white"/>
</clipPath>
</defs>
</svg>
