<svg width="303" height="130" viewBox="0 0 303 130" fill="none" xmlns="http://www.w3.org/2000/svg">
<g clip-path="url(#clip0_77_1452)">
<path d="M0 97.2745H9.95965C13.4415 97.2745 16.1136 98.2587 18.0569 100.145C20.0003 102.032 21.0529 104.41 21.0529 107.363C21.0529 110.315 20.0812 112.776 18.1379 114.662C16.1945 116.549 13.5224 117.451 9.95965 117.451H2.10529V129.59H0V97.2745ZM2.10529 115.401H9.95965C15.3848 115.401 18.7857 112.284 18.7857 107.281C18.7857 102.278 15.3848 99.3249 9.95965 99.3249H2.10529V115.401Z" fill="white"/>
<path d="M67.1264 129.59H64.8592L61.1344 120.896H43.6443L39.9196 129.59H37.6523L51.5797 97.2745H53.2801L67.2074 129.59H67.1264ZM52.3894 100.473L44.3731 119.009H60.3247L52.3084 100.473H52.3894Z" fill="white"/>
<path d="M86.8838 97.2745V127.539H102.188V129.59H84.6975V97.2745H86.8028H86.8838Z" fill="white"/>
<path d="M148.585 129.59H146.318L142.593 120.896H125.103L121.378 129.59H119.111L133.038 97.2745H134.739L148.666 129.59H148.585ZM133.848 100.473L125.832 119.009H141.783L133.767 100.473H133.848Z" fill="white"/>
<path d="M190.853 124.587L192.31 126.145C189.233 128.77 185.671 130.082 181.703 130.082C173.687 130.082 165.508 123.192 165.508 113.432C165.508 103.672 173.687 96.7823 181.703 96.7823C185.59 96.7823 189.071 98.0947 192.148 100.637L190.772 102.278C188.181 100.063 185.266 98.9148 181.865 98.9148C178.221 98.9148 174.901 100.309 171.986 103.098C169.152 105.886 167.614 109.331 167.614 113.432C167.614 117.533 169.071 120.978 171.986 123.767C174.901 126.555 178.221 127.95 181.865 127.95C185.266 127.95 188.262 126.801 190.772 124.587H190.853Z" fill="white"/>
<path d="M210.691 97.2745H212.796V129.59H210.691V97.2745Z" fill="white"/>
<path d="M247.777 96.7823C250.449 96.7823 253.04 97.4385 255.469 98.8328C257.898 100.145 259.923 102.196 261.542 104.82C263.161 107.445 263.971 110.233 263.971 113.432C263.971 116.631 263.161 119.42 261.542 122.044C258.384 127.211 253.121 130 247.777 130C245.105 130 242.513 129.344 240.003 127.95C237.574 126.555 235.55 124.587 233.93 121.962C232.311 119.42 231.582 116.549 231.582 113.35C231.582 110.151 232.392 107.281 233.93 104.738C237.169 99.571 242.351 96.7823 247.777 96.7823ZM238.06 123.767C240.894 126.473 244.133 127.868 247.777 127.868C251.42 127.868 254.578 126.473 257.412 123.767C260.246 120.978 261.785 117.533 261.785 113.35C261.785 109.167 260.327 105.722 257.412 103.016C254.578 100.227 251.339 98.8328 247.777 98.8328C244.214 98.8328 240.975 100.227 238.06 103.016C235.226 105.722 233.768 109.167 233.768 113.35C233.768 117.533 235.145 120.978 238.06 123.767Z" fill="white"/>
<path d="M292.15 96.7823C294.498 96.7823 296.522 97.4385 298.223 98.7508C299.923 100.063 301.138 101.621 301.785 103.59L300.166 104.41C298.708 100.965 295.955 98.7508 292.15 98.7508C288.101 98.7508 285.186 101.129 285.186 104.656C285.186 107.527 287.21 109.741 291.178 111.3L293.526 112.202C295.065 112.776 296.279 113.35 297.089 113.76C297.98 114.17 298.789 114.744 299.761 115.401C301.704 116.713 302.514 118.599 302.514 121.06C302.514 123.685 301.543 125.899 299.518 127.539C297.575 129.18 295.146 130 292.312 130C289.72 130 287.453 129.262 285.51 127.785C283.486 126.309 282.19 124.423 281.704 122.126L283.567 121.306C284.7 125.325 288.101 127.95 292.393 127.95C294.66 127.95 296.522 127.293 298.061 126.063C299.68 124.751 300.409 123.11 300.409 121.06C300.409 119.42 299.761 118.107 299.032 117.287C298.708 116.877 298.142 116.467 297.413 116.057L295.47 115.073C294.984 114.826 294.255 114.58 293.202 114.17L290.449 113.104C285.51 111.136 283 108.265 283 104.574C283 102.278 283.89 100.391 285.591 98.9148C287.291 97.4385 289.478 96.7003 292.15 96.7003V96.7823Z" fill="white"/>
<path d="M0 16.8959H13.2795V81.1167H0V16.8959Z" fill="white"/>
<path d="M84.3736 64.7949L103.402 16.8959H117.41L90.9324 81.1167H77.7338L51.2557 16.8959H65.264L84.2926 64.7949H84.3736Z" fill="white"/>
<path d="M260.813 81.1167H247.615V16.8959H260.813L289.073 59.2997H289.72V16.8959H302.919V81.1167H289.72L261.461 38.7129H260.813V81.1167Z" fill="white"/>
<path d="M183.079 16.8959H169.881L143.403 81.1167H157.411L176.521 33.2176L195.468 81.1167H209.557L183.079 16.8959Z" fill="white"/>
<path d="M176.925 0H192.472L182.189 10.9085H172.31L176.925 0Z" fill="white"/>
</g>
<defs>
<clipPath id="clip0_77_1452">
<rect width="303" height="130" fill="white"/>
</clipPath>
</defs>
</svg>
