<svg width="84" height="36" viewBox="0 0 84 36" fill="none" xmlns="http://www.w3.org/2000/svg">
<g clip-path="url(#clip0_478_6335)">
<path d="M0 26.9375H2.76109C3.72635 26.9375 4.46713 27.2101 5.00588 27.7325C5.54463 28.2549 5.83645 28.9135 5.83645 29.7312C5.83645 30.5489 5.56708 31.2302 5.02833 31.7526C4.48958 32.275 3.7488 32.5249 2.76109 32.5249H0.583645V35.8864H0V26.9375ZM0.583645 31.9571H2.76109C4.2651 31.9571 5.20791 31.094 5.20791 29.7085C5.20791 28.323 4.2651 27.5053 2.76109 27.5053H0.583645V31.9571Z" fill="#27AE60"/>
<path d="M18.6093 35.8864H17.9807L16.9481 33.4788H12.0994L11.0668 35.8864H10.4382L14.2993 26.9375H14.7707L18.6317 35.8864H18.6093ZM14.5237 27.8233L12.3014 32.9564H16.7236L14.5013 27.8233H14.5237Z" fill="#27AE60"/>
<path d="M24.0866 26.9375V35.3186H28.3292V35.8864H23.4805V26.9375H24.0641H24.0866Z" fill="#27AE60"/>
<path d="M41.1919 35.8864H40.5634L39.5308 33.4788H34.682L33.6494 35.8864H33.0209L36.8819 26.9375H37.3533L41.2144 35.8864H41.1919ZM37.1064 27.8233L34.884 32.9564H39.3063L37.0839 27.8233H37.1064Z" fill="#27AE60"/>
<path d="M52.9097 34.5005L53.3138 34.932C52.4608 35.6588 51.4731 36.0222 50.3731 36.0222C48.1508 36.0222 45.8835 34.1143 45.8835 31.4115C45.8835 28.7087 48.1508 26.8008 50.3731 26.8008C51.4506 26.8008 52.4159 27.1642 53.2689 27.8683L52.8873 28.3225C52.169 27.7093 51.3608 27.3913 50.418 27.3913C49.4079 27.3913 48.4875 27.7774 47.6794 28.5497C46.8937 29.3219 46.4672 30.2759 46.4672 31.4115C46.4672 32.5472 46.8713 33.5011 47.6794 34.2733C48.4875 35.0456 49.4079 35.4317 50.418 35.4317C51.3608 35.4317 52.1914 35.1137 52.8873 34.5005H52.9097Z" fill="#27AE60"/>
<path d="M58.4094 26.9375H58.9931V35.8864H58.4094V26.9375Z" fill="#27AE60"/>
<path d="M68.6905 26.8008C69.4313 26.8008 70.1496 26.9825 70.8231 27.3686C71.4965 27.732 72.0577 28.2998 72.5066 29.0266C72.9556 29.7535 73.1801 30.5257 73.1801 31.4115C73.1801 32.2973 72.9556 33.0696 72.5066 33.7964C71.6312 35.2273 70.1721 35.9995 68.6905 35.9995C67.9497 35.9995 67.2314 35.8178 66.5355 35.4317C65.8621 35.0456 65.3009 34.5005 64.8519 33.7737C64.403 33.0695 64.2009 32.2746 64.2009 31.3888C64.2009 30.503 64.4254 29.708 64.8519 29.0039C65.7498 27.573 67.1865 26.8008 68.6905 26.8008ZM65.9968 34.2733C66.7824 35.0229 67.6804 35.409 68.6905 35.409C69.7007 35.409 70.5761 35.0229 71.3618 34.2733C72.1475 33.5011 72.574 32.5472 72.574 31.3888C72.574 30.2304 72.1699 29.2765 71.3618 28.527C70.5761 27.7547 69.6782 27.3686 68.6905 27.3686C67.7028 27.3686 66.8049 27.7547 65.9968 28.527C65.2111 29.2765 64.807 30.2304 64.807 31.3888C64.807 32.5472 65.1886 33.5011 65.9968 34.2733Z" fill="#27AE60"/>
<path d="M80.992 26.801C81.643 26.801 82.2042 26.9827 82.6756 27.3461C83.147 27.7096 83.4837 28.1411 83.6633 28.6862L83.2143 28.9133C82.8102 27.9594 82.047 27.3461 80.992 27.3461C79.8696 27.3461 79.0615 28.0048 79.0615 28.9815C79.0615 29.7764 79.6226 30.3897 80.7226 30.8212L81.3736 31.0711C81.8001 31.2301 82.1368 31.389 82.3613 31.5026C82.6082 31.6162 82.8327 31.7752 83.1021 31.9569C83.6408 32.3203 83.8653 32.8427 83.8653 33.5241C83.8653 34.2509 83.5959 34.8641 83.0347 35.3184C82.496 35.7726 81.8225 35.9998 81.0369 35.9998C80.3185 35.9998 79.69 35.7954 79.1512 35.3865C78.59 34.9777 78.2309 34.4553 78.0962 33.8193L78.6125 33.5922C78.9268 34.7051 79.8696 35.4319 81.0593 35.4319C81.6879 35.4319 82.2042 35.2502 82.6307 34.9096C83.0796 34.5461 83.2816 34.0919 83.2816 33.5241C83.2816 33.0698 83.1021 32.7064 82.9 32.4793C82.8102 32.3657 82.6531 32.2521 82.4511 32.1386L81.9123 31.866C81.7776 31.7979 81.5756 31.7297 81.2838 31.6162L80.5206 31.3209C79.1512 30.7758 78.4554 29.9808 78.4554 28.9588C78.4554 28.3228 78.7023 27.8004 79.1737 27.3916C79.6451 26.9827 80.2512 26.7783 80.992 26.7783V26.801Z" fill="#27AE60"/>
<path d="M0 4.67871H3.68145V22.4629H0V4.67871Z" fill="#27AE60"/>
<path d="M23.3907 17.9431L28.6659 4.67871H32.5494L25.2089 22.4629H21.5499L14.2095 4.67871H18.093L23.3682 17.9431H23.3907Z" fill="#27AE60"/>
<path d="M72.3046 22.4629H68.6456V4.67871H72.3046L80.139 16.4213H80.3185V4.67871H83.9775V22.4629H80.3185L72.4842 10.7204H72.3046V22.4629Z" fill="#27AE60"/>
<path d="M50.7547 4.67871H47.0957L39.7552 22.4629H43.6387L48.9364 9.19859L54.1892 22.4629H58.0952L50.7547 4.67871Z" fill="#27AE60"/>
<path d="M49.0487 0H53.3587L50.5078 3.02082H47.7692L49.0487 0Z" fill="#27AE60"/>
</g>
<defs>
<clipPath id="clip0_478_6335">
<rect width="84" height="36" fill="white"/>
</clipPath>
</defs>
</svg>
