<svg width="161" height="161" viewBox="0 0 161 161" fill="none" xmlns="http://www.w3.org/2000/svg">
<g clip-path="url(#clip0_478_2275)">
<path d="M160.5 0.115723H0.5V160.116H160.5V0.115723Z" fill="white"/>
<path d="M36.9911 5.72998H34.1841V8.537H36.9911V5.72998Z" fill="black"/>
<path d="M39.7982 5.72998H36.9912V8.537H39.7982V5.72998Z" fill="black"/>
<path d="M45.4122 5.72998H42.6052V8.537H45.4122V5.72998Z" fill="black"/>
<path d="M51.0263 5.72998H48.2192V8.537H51.0263V5.72998Z" fill="black"/>
<path d="M53.8334 5.72998H51.0264V8.537H53.8334V5.72998Z" fill="black"/>
<path d="M59.4474 5.72998H56.6404V8.537H59.4474V5.72998Z" fill="black"/>
<path d="M62.2543 5.72998H59.4473V8.537H62.2543V5.72998Z" fill="black"/>
<path d="M65.0614 5.72998H62.2544V8.537H65.0614V5.72998Z" fill="black"/>
<path d="M67.8683 5.72998H65.0613V8.537H67.8683V5.72998Z" fill="black"/>
<path d="M73.4823 5.72998H70.6753V8.537H73.4823V5.72998Z" fill="black"/>
<path d="M76.2894 5.72998H73.4824V8.537H76.2894V5.72998Z" fill="black"/>
<path d="M79.0966 5.72998H76.2896V8.537H79.0966V5.72998Z" fill="black"/>
<path d="M81.9035 5.72998H79.0964V8.537H81.9035V5.72998Z" fill="black"/>
<path d="M87.5175 5.72998H84.7104V8.537H87.5175V5.72998Z" fill="black"/>
<path d="M90.3246 5.72998H87.5176V8.537H90.3246V5.72998Z" fill="black"/>
<path d="M93.1315 5.72998H90.3245V8.537H93.1315V5.72998Z" fill="black"/>
<path d="M95.9386 5.72998H93.1316V8.537H95.9386V5.72998Z" fill="black"/>
<path d="M101.553 5.72998H98.7456V8.537H101.553V5.72998Z" fill="black"/>
<path d="M118.395 5.72998H115.588V8.537H118.395V5.72998Z" fill="black"/>
<path d="M121.202 5.72998H118.395V8.537H121.202V5.72998Z" fill="black"/>
<path d="M126.816 5.72998H124.009V8.537H126.816V5.72998Z" fill="black"/>
<path d="M39.7982 8.53711H36.9912V11.3441H39.7982V8.53711Z" fill="black"/>
<path d="M42.6054 8.53711H39.7983V11.3441H42.6054V8.53711Z" fill="black"/>
<path d="M48.2194 8.53711H45.4124V11.3441H48.2194V8.53711Z" fill="black"/>
<path d="M59.4474 8.53711H56.6404V11.3441H59.4474V8.53711Z" fill="black"/>
<path d="M62.2543 8.53711H59.4473V11.3441H62.2543V8.53711Z" fill="black"/>
<path d="M70.6754 8.53711H67.8684V11.3441H70.6754V8.53711Z" fill="black"/>
<path d="M73.4823 8.53711H70.6753V11.3441H73.4823V8.53711Z" fill="black"/>
<path d="M81.9035 8.53711H79.0964V11.3441H81.9035V8.53711Z" fill="black"/>
<path d="M84.7106 8.53711H81.9036V11.3441H84.7106V8.53711Z" fill="black"/>
<path d="M90.3246 8.53711H87.5176V11.3441H90.3246V8.53711Z" fill="black"/>
<path d="M93.1315 8.53711H90.3245V11.3441H93.1315V8.53711Z" fill="black"/>
<path d="M95.9386 8.53711H93.1316V11.3441H95.9386V8.53711Z" fill="black"/>
<path d="M104.36 8.53711H101.553V11.3441H104.36V8.53711Z" fill="black"/>
<path d="M107.167 8.53711H104.36V11.3441H107.167V8.53711Z" fill="black"/>
<path d="M112.781 8.53711H109.974V11.3441H112.781V8.53711Z" fill="black"/>
<path d="M115.588 8.53711H112.781V11.3441H115.588V8.53711Z" fill="black"/>
<path d="M118.395 8.53711H115.588V11.3441H118.395V8.53711Z" fill="black"/>
<path d="M121.202 8.53711H118.395V11.3441H121.202V8.53711Z" fill="black"/>
<path d="M126.816 8.53711H124.009V11.3441H126.816V8.53711Z" fill="black"/>
<path d="M129.623 8.53711H126.816V11.3441H129.623V8.53711Z" fill="black"/>
<path d="M31.3771 11.3442H28.5701V14.1513H31.3771V11.3442Z" fill="black"/>
<path d="M45.4122 11.3442H42.6052V14.1513H45.4122V11.3442Z" fill="black"/>
<path d="M48.2194 11.3442H45.4124V14.1513H48.2194V11.3442Z" fill="black"/>
<path d="M53.8334 11.3442H51.0264V14.1513H53.8334V11.3442Z" fill="black"/>
<path d="M56.6403 11.3442H53.8333V14.1513H56.6403V11.3442Z" fill="black"/>
<path d="M65.0614 11.3442H62.2544V14.1513H65.0614V11.3442Z" fill="black"/>
<path d="M70.6754 11.3442H67.8684V14.1513H70.6754V11.3442Z" fill="black"/>
<path d="M76.2894 11.3442H73.4824V14.1513H76.2894V11.3442Z" fill="black"/>
<path d="M79.0966 11.3442H76.2896V14.1513H79.0966V11.3442Z" fill="black"/>
<path d="M84.7106 11.3442H81.9036V14.1513H84.7106V11.3442Z" fill="black"/>
<path d="M93.1315 11.3442H90.3245V14.1513H93.1315V11.3442Z" fill="black"/>
<path d="M101.553 11.3442H98.7456V14.1513H101.553V11.3442Z" fill="black"/>
<path d="M107.167 11.3442H104.36V14.1513H107.167V11.3442Z" fill="black"/>
<path d="M112.781 11.3442H109.974V14.1513H112.781V11.3442Z" fill="black"/>
<path d="M121.202 11.3442H118.395V14.1513H121.202V11.3442Z" fill="black"/>
<path d="M129.623 11.3442H126.816V14.1513H129.623V11.3442Z" fill="black"/>
<path d="M31.3771 14.1509H28.5701V16.9579H31.3771V14.1509Z" fill="black"/>
<path d="M39.7982 14.1509H36.9912V16.9579H39.7982V14.1509Z" fill="black"/>
<path d="M45.4122 14.1509H42.6052V16.9579H45.4122V14.1509Z" fill="black"/>
<path d="M53.8334 14.1509H51.0264V16.9579H53.8334V14.1509Z" fill="black"/>
<path d="M59.4474 14.1509H56.6404V16.9579H59.4474V14.1509Z" fill="black"/>
<path d="M62.2543 14.1509H59.4473V16.9579H62.2543V14.1509Z" fill="black"/>
<path d="M76.2894 14.1509H73.4824V16.9579H76.2894V14.1509Z" fill="black"/>
<path d="M87.5175 14.1509H84.7104V16.9579H87.5175V14.1509Z" fill="black"/>
<path d="M93.1315 14.1509H90.3245V16.9579H93.1315V14.1509Z" fill="black"/>
<path d="M95.9386 14.1509H93.1316V16.9579H95.9386V14.1509Z" fill="black"/>
<path d="M104.36 14.1509H101.553V16.9579H104.36V14.1509Z" fill="black"/>
<path d="M109.974 14.1509H107.167V16.9579H109.974V14.1509Z" fill="black"/>
<path d="M112.781 14.1509H109.974V16.9579H112.781V14.1509Z" fill="black"/>
<path d="M124.009 14.1509H121.202V16.9579H124.009V14.1509Z" fill="black"/>
<path d="M126.816 14.1509H124.009V16.9579H126.816V14.1509Z" fill="black"/>
<path d="M132.43 14.1509H129.623V16.9579H132.43V14.1509Z" fill="black"/>
<path d="M31.3771 16.958H28.5701V19.765H31.3771V16.958Z" fill="black"/>
<path d="M36.9911 16.958H34.1841V19.765H36.9911V16.958Z" fill="black"/>
<path d="M42.6054 16.958H39.7983V19.765H42.6054V16.958Z" fill="black"/>
<path d="M48.2194 16.958H45.4124V19.765H48.2194V16.958Z" fill="black"/>
<path d="M53.8334 16.958H51.0264V19.765H53.8334V16.958Z" fill="black"/>
<path d="M56.6403 16.958H53.8333V19.765H56.6403V16.958Z" fill="black"/>
<path d="M65.0614 16.958H62.2544V19.765H65.0614V16.958Z" fill="black"/>
<path d="M70.6754 16.958H67.8684V19.765H70.6754V16.958Z" fill="black"/>
<path d="M73.4823 16.958H70.6753V19.765H73.4823V16.958Z" fill="black"/>
<path d="M76.2894 16.958H73.4824V19.765H76.2894V16.958Z" fill="black"/>
<path d="M79.0966 16.958H76.2896V19.765H79.0966V16.958Z" fill="black"/>
<path d="M81.9035 16.958H79.0964V19.765H81.9035V16.958Z" fill="black"/>
<path d="M84.7106 16.958H81.9036V19.765H84.7106V16.958Z" fill="black"/>
<path d="M87.5175 16.958H84.7104V19.765H87.5175V16.958Z" fill="black"/>
<path d="M90.3246 16.958H87.5176V19.765H90.3246V16.958Z" fill="black"/>
<path d="M93.1315 16.958H90.3245V19.765H93.1315V16.958Z" fill="black"/>
<path d="M98.7455 16.958H95.9385V19.765H98.7455V16.958Z" fill="black"/>
<path d="M107.167 16.958H104.36V19.765H107.167V16.958Z" fill="black"/>
<path d="M112.781 16.958H109.974V19.765H112.781V16.958Z" fill="black"/>
<path d="M124.009 16.958H121.202V19.765H124.009V16.958Z" fill="black"/>
<path d="M126.816 16.958H124.009V19.765H126.816V16.958Z" fill="black"/>
<path d="M31.3771 19.7651H28.5701V22.5722H31.3771V19.7651Z" fill="black"/>
<path d="M39.7982 19.7651H36.9912V22.5722H39.7982V19.7651Z" fill="black"/>
<path d="M42.6054 19.7651H39.7983V22.5722H42.6054V19.7651Z" fill="black"/>
<path d="M45.4122 19.7651H42.6052V22.5722H45.4122V19.7651Z" fill="black"/>
<path d="M56.6403 19.7651H53.8333V22.5722H56.6403V19.7651Z" fill="black"/>
<path d="M59.4474 19.7651H56.6404V22.5722H59.4474V19.7651Z" fill="black"/>
<path d="M65.0614 19.7651H62.2544V22.5722H65.0614V19.7651Z" fill="black"/>
<path d="M76.2894 19.7651H73.4824V22.5722H76.2894V19.7651Z" fill="black"/>
<path d="M87.5175 19.7651H84.7104V22.5722H87.5175V19.7651Z" fill="black"/>
<path d="M93.1315 19.7651H90.3245V22.5722H93.1315V19.7651Z" fill="black"/>
<path d="M98.7455 19.7651H95.9385V22.5722H98.7455V19.7651Z" fill="black"/>
<path d="M101.553 19.7651H98.7456V22.5722H101.553V19.7651Z" fill="black"/>
<path d="M104.36 19.7651H101.553V22.5722H104.36V19.7651Z" fill="black"/>
<path d="M109.974 19.7651H107.167V22.5722H109.974V19.7651Z" fill="black"/>
<path d="M112.781 19.7651H109.974V22.5722H112.781V19.7651Z" fill="black"/>
<path d="M124.009 19.7651H121.202V22.5722H124.009V19.7651Z" fill="black"/>
<path d="M126.816 19.7651H124.009V22.5722H126.816V19.7651Z" fill="black"/>
<path d="M31.3771 22.5723H28.5701V25.3793H31.3771V22.5723Z" fill="black"/>
<path d="M36.9911 22.5723H34.1841V25.3793H36.9911V22.5723Z" fill="black"/>
<path d="M42.6054 22.5723H39.7983V25.3793H42.6054V22.5723Z" fill="black"/>
<path d="M48.2194 22.5723H45.4124V25.3793H48.2194V22.5723Z" fill="black"/>
<path d="M53.8334 22.5723H51.0264V25.3793H53.8334V22.5723Z" fill="black"/>
<path d="M59.4474 22.5723H56.6404V25.3793H59.4474V22.5723Z" fill="black"/>
<path d="M65.0614 22.5723H62.2544V25.3793H65.0614V22.5723Z" fill="black"/>
<path d="M70.6754 22.5723H67.8684V25.3793H70.6754V22.5723Z" fill="black"/>
<path d="M76.2894 22.5723H73.4824V25.3793H76.2894V22.5723Z" fill="black"/>
<path d="M81.9035 22.5723H79.0964V25.3793H81.9035V22.5723Z" fill="black"/>
<path d="M87.5175 22.5723H84.7104V25.3793H87.5175V22.5723Z" fill="black"/>
<path d="M93.1315 22.5723H90.3245V25.3793H93.1315V22.5723Z" fill="black"/>
<path d="M98.7455 22.5723H95.9385V25.3793H98.7455V22.5723Z" fill="black"/>
<path d="M104.36 22.5723H101.553V25.3793H104.36V22.5723Z" fill="black"/>
<path d="M109.974 22.5723H107.167V25.3793H109.974V22.5723Z" fill="black"/>
<path d="M115.588 22.5723H112.781V25.3793H115.588V22.5723Z" fill="black"/>
<path d="M121.202 22.5723H118.395V25.3793H121.202V22.5723Z" fill="black"/>
<path d="M126.816 22.5723H124.009V25.3793H126.816V22.5723Z" fill="black"/>
<path d="M132.43 22.5723H129.623V25.3793H132.43V22.5723Z" fill="black"/>
<path d="M31.3771 25.3789H28.5701V28.1859H31.3771V25.3789Z" fill="black"/>
<path d="M36.9911 25.3789H34.1841V28.1859H36.9911V25.3789Z" fill="black"/>
<path d="M39.7982 25.3789H36.9912V28.1859H39.7982V25.3789Z" fill="black"/>
<path d="M48.2194 25.3789H45.4124V28.1859H48.2194V25.3789Z" fill="black"/>
<path d="M51.0263 25.3789H48.2192V28.1859H51.0263V25.3789Z" fill="black"/>
<path d="M56.6403 25.3789H53.8333V28.1859H56.6403V25.3789Z" fill="black"/>
<path d="M59.4474 25.3789H56.6404V28.1859H59.4474V25.3789Z" fill="black"/>
<path d="M67.8683 25.3789H65.0613V28.1859H67.8683V25.3789Z" fill="black"/>
<path d="M70.6754 25.3789H67.8684V28.1859H70.6754V25.3789Z" fill="black"/>
<path d="M76.2894 25.3789H73.4824V28.1859H76.2894V25.3789Z" fill="black"/>
<path d="M87.5175 25.3789H84.7104V28.1859H87.5175V25.3789Z" fill="black"/>
<path d="M90.3246 25.3789H87.5176V28.1859H90.3246V25.3789Z" fill="black"/>
<path d="M95.9386 25.3789H93.1316V28.1859H95.9386V25.3789Z" fill="black"/>
<path d="M98.7455 25.3789H95.9385V28.1859H98.7455V25.3789Z" fill="black"/>
<path d="M101.553 25.3789H98.7456V28.1859H101.553V25.3789Z" fill="black"/>
<path d="M104.36 25.3789H101.553V28.1859H104.36V25.3789Z" fill="black"/>
<path d="M121.202 25.3789H118.395V28.1859H121.202V25.3789Z" fill="black"/>
<path d="M126.816 25.3789H124.009V28.1859H126.816V25.3789Z" fill="black"/>
<path d="M129.623 25.3789H126.816V28.1859H129.623V25.3789Z" fill="black"/>
<path d="M132.43 25.3789H129.623V28.1859H132.43V25.3789Z" fill="black"/>
<path d="M8.92103 28.186H6.11401V30.9931H8.92103V28.186Z" fill="black"/>
<path d="M14.535 28.186H11.728V30.9931H14.535V28.186Z" fill="black"/>
<path d="M17.3422 28.186H14.5352V30.9931H17.3422V28.186Z" fill="black"/>
<path d="M20.1491 28.186H17.342V30.9931H20.1491V28.186Z" fill="black"/>
<path d="M22.9562 28.186H20.1492V30.9931H22.9562V28.186Z" fill="black"/>
<path d="M25.7631 28.186H22.9561V30.9931H25.7631V28.186Z" fill="black"/>
<path d="M36.9911 28.186H34.1841V30.9931H36.9911V28.186Z" fill="black"/>
<path d="M39.7982 28.186H36.9912V30.9931H39.7982V28.186Z" fill="black"/>
<path d="M45.4122 28.186H42.6052V30.9931H45.4122V28.186Z" fill="black"/>
<path d="M53.8334 28.186H51.0264V30.9931H53.8334V28.186Z" fill="black"/>
<path d="M62.2543 28.186H59.4473V30.9931H62.2543V28.186Z" fill="black"/>
<path d="M65.0614 28.186H62.2544V30.9931H65.0614V28.186Z" fill="black"/>
<path d="M76.2894 28.186H73.4824V30.9931H76.2894V28.186Z" fill="black"/>
<path d="M79.0966 28.186H76.2896V30.9931H79.0966V28.186Z" fill="black"/>
<path d="M81.9035 28.186H79.0964V30.9931H81.9035V28.186Z" fill="black"/>
<path d="M84.7106 28.186H81.9036V30.9931H84.7106V28.186Z" fill="black"/>
<path d="M87.5175 28.186H84.7104V30.9931H87.5175V28.186Z" fill="black"/>
<path d="M90.3246 28.186H87.5176V30.9931H90.3246V28.186Z" fill="black"/>
<path d="M93.1315 28.186H90.3245V30.9931H93.1315V28.186Z" fill="black"/>
<path d="M107.167 28.186H104.36V30.9931H107.167V28.186Z" fill="black"/>
<path d="M109.974 28.186H107.167V30.9931H109.974V28.186Z" fill="black"/>
<path d="M124.009 28.186H121.202V30.9931H124.009V28.186Z" fill="black"/>
<path d="M126.816 28.186H124.009V30.9931H126.816V28.186Z" fill="black"/>
<path d="M132.43 28.186H129.623V30.9931H132.43V28.186Z" fill="black"/>
<path d="M138.044 28.186H135.237V30.9931H138.044V28.186Z" fill="black"/>
<path d="M140.851 28.186H138.044V30.9931H140.851V28.186Z" fill="black"/>
<path d="M143.658 28.186H140.851V30.9931H143.658V28.186Z" fill="black"/>
<path d="M146.465 28.186H143.658V30.9931H146.465V28.186Z" fill="black"/>
<path d="M149.272 28.186H146.465V30.9931H149.272V28.186Z" fill="black"/>
<path d="M14.535 30.9932H11.728V33.8002H14.535V30.9932Z" fill="black"/>
<path d="M34.1842 30.9932H31.3772V33.8002H34.1842V30.9932Z" fill="black"/>
<path d="M36.9911 30.9932H34.1841V33.8002H36.9911V30.9932Z" fill="black"/>
<path d="M53.8334 30.9932H51.0264V33.8002H53.8334V30.9932Z" fill="black"/>
<path d="M56.6403 30.9932H53.8333V33.8002H56.6403V30.9932Z" fill="black"/>
<path d="M62.2543 30.9932H59.4473V33.8002H62.2543V30.9932Z" fill="black"/>
<path d="M65.0614 30.9932H62.2544V33.8002H65.0614V30.9932Z" fill="black"/>
<path d="M67.8683 30.9932H65.0613V33.8002H67.8683V30.9932Z" fill="black"/>
<path d="M70.6754 30.9932H67.8684V33.8002H70.6754V30.9932Z" fill="black"/>
<path d="M76.2894 30.9932H73.4824V33.8002H76.2894V30.9932Z" fill="black"/>
<path d="M79.0966 30.9932H76.2896V33.8002H79.0966V30.9932Z" fill="black"/>
<path d="M81.9035 30.9932H79.0964V33.8002H81.9035V30.9932Z" fill="black"/>
<path d="M93.1315 30.9932H90.3245V33.8002H93.1315V30.9932Z" fill="black"/>
<path d="M95.9386 30.9932H93.1316V33.8002H95.9386V30.9932Z" fill="black"/>
<path d="M107.167 30.9932H104.36V33.8002H107.167V30.9932Z" fill="black"/>
<path d="M109.974 30.9932H107.167V33.8002H109.974V30.9932Z" fill="black"/>
<path d="M112.781 30.9932H109.974V33.8002H112.781V30.9932Z" fill="black"/>
<path d="M124.009 30.9932H121.202V33.8002H124.009V30.9932Z" fill="black"/>
<path d="M126.816 30.9932H124.009V33.8002H126.816V30.9932Z" fill="black"/>
<path d="M129.623 30.9932H126.816V33.8002H129.623V30.9932Z" fill="black"/>
<path d="M135.237 30.9932H132.43V33.8002H135.237V30.9932Z" fill="black"/>
<path d="M146.465 30.9932H143.658V33.8002H146.465V30.9932Z" fill="black"/>
<path d="M152.079 30.9932H149.272V33.8002H152.079V30.9932Z" fill="black"/>
<path d="M8.92103 33.8003H6.11401V36.6073H8.92103V33.8003Z" fill="black"/>
<path d="M22.9562 33.8003H20.1492V36.6073H22.9562V33.8003Z" fill="black"/>
<path d="M25.7631 33.8003H22.9561V36.6073H25.7631V33.8003Z" fill="black"/>
<path d="M28.5702 33.8003H25.7632V36.6073H28.5702V33.8003Z" fill="black"/>
<path d="M34.1842 33.8003H31.3772V36.6073H34.1842V33.8003Z" fill="black"/>
<path d="M36.9911 33.8003H34.1841V36.6073H36.9911V33.8003Z" fill="black"/>
<path d="M39.7982 33.8003H36.9912V36.6073H39.7982V33.8003Z" fill="black"/>
<path d="M42.6054 33.8003H39.7983V36.6073H42.6054V33.8003Z" fill="black"/>
<path d="M51.0263 33.8003H48.2192V36.6073H51.0263V33.8003Z" fill="black"/>
<path d="M53.8334 33.8003H51.0264V36.6073H53.8334V33.8003Z" fill="black"/>
<path d="M76.2894 33.8003H73.4824V36.6073H76.2894V33.8003Z" fill="black"/>
<path d="M93.1315 33.8003H90.3245V36.6073H93.1315V33.8003Z" fill="black"/>
<path d="M98.7455 33.8003H95.9385V36.6073H98.7455V33.8003Z" fill="black"/>
<path d="M101.553 33.8003H98.7456V36.6073H101.553V33.8003Z" fill="black"/>
<path d="M109.974 33.8003H107.167V36.6073H109.974V33.8003Z" fill="black"/>
<path d="M112.781 33.8003H109.974V36.6073H112.781V33.8003Z" fill="black"/>
<path d="M121.202 33.8003H118.395V36.6073H121.202V33.8003Z" fill="black"/>
<path d="M124.009 33.8003H121.202V36.6073H124.009V33.8003Z" fill="black"/>
<path d="M126.816 33.8003H124.009V36.6073H126.816V33.8003Z" fill="black"/>
<path d="M129.623 33.8003H126.816V36.6073H129.623V33.8003Z" fill="black"/>
<path d="M132.43 33.8003H129.623V36.6073H132.43V33.8003Z" fill="black"/>
<path d="M138.044 33.8003H135.237V36.6073H138.044V33.8003Z" fill="black"/>
<path d="M140.851 33.8003H138.044V36.6073H140.851V33.8003Z" fill="black"/>
<path d="M149.272 33.8003H146.465V36.6073H149.272V33.8003Z" fill="black"/>
<path d="M8.92103 36.6069H6.11401V39.414H8.92103V36.6069Z" fill="black"/>
<path d="M14.535 36.6069H11.728V39.414H14.535V36.6069Z" fill="black"/>
<path d="M20.1491 36.6069H17.342V39.414H20.1491V36.6069Z" fill="black"/>
<path d="M22.9562 36.6069H20.1492V39.414H22.9562V36.6069Z" fill="black"/>
<path d="M28.5702 36.6069H25.7632V39.414H28.5702V36.6069Z" fill="black"/>
<path d="M31.3771 36.6069H28.5701V39.414H31.3771V36.6069Z" fill="black"/>
<path d="M36.9911 36.6069H34.1841V39.414H36.9911V36.6069Z" fill="black"/>
<path d="M56.6403 36.6069H53.8333V39.414H56.6403V36.6069Z" fill="black"/>
<path d="M62.2543 36.6069H59.4473V39.414H62.2543V36.6069Z" fill="black"/>
<path d="M65.0614 36.6069H62.2544V39.414H65.0614V36.6069Z" fill="black"/>
<path d="M73.4823 36.6069H70.6753V39.414H73.4823V36.6069Z" fill="black"/>
<path d="M76.2894 36.6069H73.4824V39.414H76.2894V36.6069Z" fill="black"/>
<path d="M79.0966 36.6069H76.2896V39.414H79.0966V36.6069Z" fill="black"/>
<path d="M84.7106 36.6069H81.9036V39.414H84.7106V36.6069Z" fill="black"/>
<path d="M87.5175 36.6069H84.7104V39.414H87.5175V36.6069Z" fill="black"/>
<path d="M90.3246 36.6069H87.5176V39.414H90.3246V36.6069Z" fill="black"/>
<path d="M93.1315 36.6069H90.3245V39.414H93.1315V36.6069Z" fill="black"/>
<path d="M98.7455 36.6069H95.9385V39.414H98.7455V36.6069Z" fill="black"/>
<path d="M101.553 36.6069H98.7456V39.414H101.553V36.6069Z" fill="black"/>
<path d="M104.36 36.6069H101.553V39.414H104.36V36.6069Z" fill="black"/>
<path d="M109.974 36.6069H107.167V39.414H109.974V36.6069Z" fill="black"/>
<path d="M115.588 36.6069H112.781V39.414H115.588V36.6069Z" fill="black"/>
<path d="M118.395 36.6069H115.588V39.414H118.395V36.6069Z" fill="black"/>
<path d="M121.202 36.6069H118.395V39.414H121.202V36.6069Z" fill="black"/>
<path d="M135.237 36.6069H132.43V39.414H135.237V36.6069Z" fill="black"/>
<path d="M138.044 36.6069H135.237V39.414H138.044V36.6069Z" fill="black"/>
<path d="M146.465 36.6069H143.658V39.414H146.465V36.6069Z" fill="black"/>
<path d="M149.272 36.6069H146.465V39.414H149.272V36.6069Z" fill="black"/>
<path d="M152.079 36.6069H149.272V39.414H152.079V36.6069Z" fill="black"/>
<path d="M154.886 36.6069H152.079V39.414H154.886V36.6069Z" fill="black"/>
<path d="M8.92103 39.4141H6.11401V42.2211H8.92103V39.4141Z" fill="black"/>
<path d="M17.3422 39.4141H14.5352V42.2211H17.3422V39.4141Z" fill="black"/>
<path d="M22.9562 39.4141H20.1492V42.2211H22.9562V39.4141Z" fill="black"/>
<path d="M25.7631 39.4141H22.9561V42.2211H25.7631V39.4141Z" fill="black"/>
<path d="M31.3771 39.4141H28.5701V42.2211H31.3771V39.4141Z" fill="black"/>
<path d="M39.7982 39.4141H36.9912V42.2211H39.7982V39.4141Z" fill="black"/>
<path d="M42.6054 39.4141H39.7983V42.2211H42.6054V39.4141Z" fill="black"/>
<path d="M51.0263 39.4141H48.2192V42.2211H51.0263V39.4141Z" fill="black"/>
<path d="M53.8334 39.4141H51.0264V42.2211H53.8334V39.4141Z" fill="black"/>
<path d="M59.4474 39.4141H56.6404V42.2211H59.4474V39.4141Z" fill="black"/>
<path d="M62.2543 39.4141H59.4473V42.2211H62.2543V39.4141Z" fill="black"/>
<path d="M65.0614 39.4141H62.2544V42.2211H65.0614V39.4141Z" fill="black"/>
<path d="M81.9035 39.4141H79.0964V42.2211H81.9035V39.4141Z" fill="black"/>
<path d="M87.5175 39.4141H84.7104V42.2211H87.5175V39.4141Z" fill="black"/>
<path d="M90.3246 39.4141H87.5176V42.2211H90.3246V39.4141Z" fill="black"/>
<path d="M93.1315 39.4141H90.3245V42.2211H93.1315V39.4141Z" fill="black"/>
<path d="M95.9386 39.4141H93.1316V42.2211H95.9386V39.4141Z" fill="black"/>
<path d="M107.167 39.4141H104.36V42.2211H107.167V39.4141Z" fill="black"/>
<path d="M109.974 39.4141H107.167V42.2211H109.974V39.4141Z" fill="black"/>
<path d="M118.395 39.4141H115.588V42.2211H118.395V39.4141Z" fill="black"/>
<path d="M124.009 39.4141H121.202V42.2211H124.009V39.4141Z" fill="black"/>
<path d="M126.816 39.4141H124.009V42.2211H126.816V39.4141Z" fill="black"/>
<path d="M132.43 39.4141H129.623V42.2211H132.43V39.4141Z" fill="black"/>
<path d="M135.237 39.4141H132.43V42.2211H135.237V39.4141Z" fill="black"/>
<path d="M138.044 39.4141H135.237V42.2211H138.044V39.4141Z" fill="black"/>
<path d="M140.851 39.4141H138.044V42.2211H140.851V39.4141Z" fill="black"/>
<path d="M143.658 39.4141H140.851V42.2211H143.658V39.4141Z" fill="black"/>
<path d="M152.079 39.4141H149.272V42.2211H152.079V39.4141Z" fill="black"/>
<path d="M8.92103 42.2212H6.11401V45.0282H8.92103V42.2212Z" fill="black"/>
<path d="M11.7282 42.2212H8.92114V45.0282H11.7282V42.2212Z" fill="black"/>
<path d="M17.3422 42.2212H14.5352V45.0282H17.3422V42.2212Z" fill="black"/>
<path d="M20.1491 42.2212H17.342V45.0282H20.1491V42.2212Z" fill="black"/>
<path d="M22.9562 42.2212H20.1492V45.0282H22.9562V42.2212Z" fill="black"/>
<path d="M31.3771 42.2212H28.5701V45.0282H31.3771V42.2212Z" fill="black"/>
<path d="M39.7982 42.2212H36.9912V45.0282H39.7982V42.2212Z" fill="black"/>
<path d="M42.6054 42.2212H39.7983V45.0282H42.6054V42.2212Z" fill="black"/>
<path d="M45.4122 42.2212H42.6052V45.0282H45.4122V42.2212Z" fill="black"/>
<path d="M48.2194 42.2212H45.4124V45.0282H48.2194V42.2212Z" fill="black"/>
<path d="M53.8334 42.2212H51.0264V45.0282H53.8334V42.2212Z" fill="black"/>
<path d="M59.4474 42.2212H56.6404V45.0282H59.4474V42.2212Z" fill="black"/>
<path d="M65.0614 42.2212H62.2544V45.0282H65.0614V42.2212Z" fill="black"/>
<path d="M73.4823 42.2212H70.6753V45.0282H73.4823V42.2212Z" fill="black"/>
<path d="M79.0966 42.2212H76.2896V45.0282H79.0966V42.2212Z" fill="black"/>
<path d="M87.5175 42.2212H84.7104V45.0282H87.5175V42.2212Z" fill="black"/>
<path d="M93.1315 42.2212H90.3245V45.0282H93.1315V42.2212Z" fill="black"/>
<path d="M95.9386 42.2212H93.1316V45.0282H95.9386V42.2212Z" fill="black"/>
<path d="M98.7455 42.2212H95.9385V45.0282H98.7455V42.2212Z" fill="black"/>
<path d="M107.167 42.2212H104.36V45.0282H107.167V42.2212Z" fill="black"/>
<path d="M109.974 42.2212H107.167V45.0282H109.974V42.2212Z" fill="black"/>
<path d="M118.395 42.2212H115.588V45.0282H118.395V42.2212Z" fill="black"/>
<path d="M121.202 42.2212H118.395V45.0282H121.202V42.2212Z" fill="black"/>
<path d="M124.009 42.2212H121.202V45.0282H124.009V42.2212Z" fill="black"/>
<path d="M126.816 42.2212H124.009V45.0282H126.816V42.2212Z" fill="black"/>
<path d="M129.623 42.2212H126.816V45.0282H129.623V42.2212Z" fill="black"/>
<path d="M140.851 42.2212H138.044V45.0282H140.851V42.2212Z" fill="black"/>
<path d="M152.079 42.2212H149.272V45.0282H152.079V42.2212Z" fill="black"/>
<path d="M154.886 42.2212H152.079V45.0282H154.886V42.2212Z" fill="black"/>
<path d="M14.535 45.0283H11.728V47.8353H14.535V45.0283Z" fill="black"/>
<path d="M17.3422 45.0283H14.5352V47.8353H17.3422V45.0283Z" fill="black"/>
<path d="M20.1491 45.0283H17.342V47.8353H20.1491V45.0283Z" fill="black"/>
<path d="M22.9562 45.0283H20.1492V47.8353H22.9562V45.0283Z" fill="black"/>
<path d="M25.7631 45.0283H22.9561V47.8353H25.7631V45.0283Z" fill="black"/>
<path d="M28.5702 45.0283H25.7632V47.8353H28.5702V45.0283Z" fill="black"/>
<path d="M34.1842 45.0283H31.3772V47.8353H34.1842V45.0283Z" fill="black"/>
<path d="M36.9911 45.0283H34.1841V47.8353H36.9911V45.0283Z" fill="black"/>
<path d="M39.7982 45.0283H36.9912V47.8353H39.7982V45.0283Z" fill="black"/>
<path d="M45.4122 45.0283H42.6052V47.8353H45.4122V45.0283Z" fill="black"/>
<path d="M51.0263 45.0283H48.2192V47.8353H51.0263V45.0283Z" fill="black"/>
<path d="M53.8334 45.0283H51.0264V47.8353H53.8334V45.0283Z" fill="black"/>
<path d="M62.2543 45.0283H59.4473V47.8353H62.2543V45.0283Z" fill="black"/>
<path d="M65.0614 45.0283H62.2544V47.8353H65.0614V45.0283Z" fill="black"/>
<path d="M73.4823 45.0283H70.6753V47.8353H73.4823V45.0283Z" fill="black"/>
<path d="M79.0966 45.0283H76.2896V47.8353H79.0966V45.0283Z" fill="black"/>
<path d="M81.9035 45.0283H79.0964V47.8353H81.9035V45.0283Z" fill="black"/>
<path d="M90.3246 45.0283H87.5176V47.8353H90.3246V45.0283Z" fill="black"/>
<path d="M95.9386 45.0283H93.1316V47.8353H95.9386V45.0283Z" fill="black"/>
<path d="M98.7455 45.0283H95.9385V47.8353H98.7455V45.0283Z" fill="black"/>
<path d="M101.553 45.0283H98.7456V47.8353H101.553V45.0283Z" fill="black"/>
<path d="M104.36 45.0283H101.553V47.8353H104.36V45.0283Z" fill="black"/>
<path d="M109.974 45.0283H107.167V47.8353H109.974V45.0283Z" fill="black"/>
<path d="M121.202 45.0283H118.395V47.8353H121.202V45.0283Z" fill="black"/>
<path d="M124.009 45.0283H121.202V47.8353H124.009V45.0283Z" fill="black"/>
<path d="M132.43 45.0283H129.623V47.8353H132.43V45.0283Z" fill="black"/>
<path d="M135.237 45.0283H132.43V47.8353H135.237V45.0283Z" fill="black"/>
<path d="M143.658 45.0283H140.851V47.8353H143.658V45.0283Z" fill="black"/>
<path d="M146.465 45.0283H143.658V47.8353H146.465V45.0283Z" fill="black"/>
<path d="M17.3422 47.8354H14.5352V50.6425H17.3422V47.8354Z" fill="black"/>
<path d="M28.5702 47.8354H25.7632V50.6425H28.5702V47.8354Z" fill="black"/>
<path d="M31.3771 47.8354H28.5701V50.6425H31.3771V47.8354Z" fill="black"/>
<path d="M36.9911 47.8354H34.1841V50.6425H36.9911V47.8354Z" fill="black"/>
<path d="M39.7982 47.8354H36.9912V50.6425H39.7982V47.8354Z" fill="black"/>
<path d="M45.4122 47.8354H42.6052V50.6425H45.4122V47.8354Z" fill="black"/>
<path d="M48.2194 47.8354H45.4124V50.6425H48.2194V47.8354Z" fill="black"/>
<path d="M65.0614 47.8354H62.2544V50.6425H65.0614V47.8354Z" fill="black"/>
<path d="M73.4823 47.8354H70.6753V50.6425H73.4823V47.8354Z" fill="black"/>
<path d="M76.2894 47.8354H73.4824V50.6425H76.2894V47.8354Z" fill="black"/>
<path d="M79.0966 47.8354H76.2896V50.6425H79.0966V47.8354Z" fill="black"/>
<path d="M87.5175 47.8354H84.7104V50.6425H87.5175V47.8354Z" fill="black"/>
<path d="M90.3246 47.8354H87.5176V50.6425H90.3246V47.8354Z" fill="black"/>
<path d="M95.9386 47.8354H93.1316V50.6425H95.9386V47.8354Z" fill="black"/>
<path d="M112.781 47.8354H109.974V50.6425H112.781V47.8354Z" fill="black"/>
<path d="M118.395 47.8354H115.588V50.6425H118.395V47.8354Z" fill="black"/>
<path d="M126.816 47.8354H124.009V50.6425H126.816V47.8354Z" fill="black"/>
<path d="M129.623 47.8354H126.816V50.6425H129.623V47.8354Z" fill="black"/>
<path d="M132.43 47.8354H129.623V50.6425H132.43V47.8354Z" fill="black"/>
<path d="M135.237 47.8354H132.43V50.6425H135.237V47.8354Z" fill="black"/>
<path d="M138.044 47.8354H135.237V50.6425H138.044V47.8354Z" fill="black"/>
<path d="M146.465 47.8354H143.658V50.6425H146.465V47.8354Z" fill="black"/>
<path d="M8.92103 50.6421H6.11401V53.4491H8.92103V50.6421Z" fill="black"/>
<path d="M14.535 50.6421H11.728V53.4491H14.535V50.6421Z" fill="black"/>
<path d="M17.3422 50.6421H14.5352V53.4491H17.3422V50.6421Z" fill="black"/>
<path d="M22.9562 50.6421H20.1492V53.4491H22.9562V50.6421Z" fill="black"/>
<path d="M25.7631 50.6421H22.9561V53.4491H25.7631V50.6421Z" fill="black"/>
<path d="M28.5702 50.6421H25.7632V53.4491H28.5702V50.6421Z" fill="black"/>
<path d="M31.3771 50.6421H28.5701V53.4491H31.3771V50.6421Z" fill="black"/>
<path d="M39.7982 50.6421H36.9912V53.4491H39.7982V50.6421Z" fill="black"/>
<path d="M59.4474 50.6421H56.6404V53.4491H59.4474V50.6421Z" fill="black"/>
<path d="M65.0614 50.6421H62.2544V53.4491H65.0614V50.6421Z" fill="black"/>
<path d="M67.8683 50.6421H65.0613V53.4491H67.8683V50.6421Z" fill="black"/>
<path d="M73.4823 50.6421H70.6753V53.4491H73.4823V50.6421Z" fill="black"/>
<path d="M76.2894 50.6421H73.4824V53.4491H76.2894V50.6421Z" fill="black"/>
<path d="M79.0966 50.6421H76.2896V53.4491H79.0966V50.6421Z" fill="black"/>
<path d="M81.9035 50.6421H79.0964V53.4491H81.9035V50.6421Z" fill="black"/>
<path d="M95.9386 50.6421H93.1316V53.4491H95.9386V50.6421Z" fill="black"/>
<path d="M101.553 50.6421H98.7456V53.4491H101.553V50.6421Z" fill="black"/>
<path d="M104.36 50.6421H101.553V53.4491H104.36V50.6421Z" fill="black"/>
<path d="M107.167 50.6421H104.36V53.4491H107.167V50.6421Z" fill="black"/>
<path d="M109.974 50.6421H107.167V53.4491H109.974V50.6421Z" fill="black"/>
<path d="M115.588 50.6421H112.781V53.4491H115.588V50.6421Z" fill="black"/>
<path d="M124.009 50.6421H121.202V53.4491H124.009V50.6421Z" fill="black"/>
<path d="M140.851 50.6421H138.044V53.4491H140.851V50.6421Z" fill="black"/>
<path d="M143.658 50.6421H140.851V53.4491H143.658V50.6421Z" fill="black"/>
<path d="M149.272 50.6421H146.465V53.4491H149.272V50.6421Z" fill="black"/>
<path d="M152.079 50.6421H149.272V53.4491H152.079V50.6421Z" fill="black"/>
<path d="M154.886 50.6421H152.079V53.4491H154.886V50.6421Z" fill="black"/>
<path d="M8.92103 53.4492H6.11401V56.2562H8.92103V53.4492Z" fill="black"/>
<path d="M11.7282 53.4492H8.92114V56.2562H11.7282V53.4492Z" fill="black"/>
<path d="M14.535 53.4492H11.728V56.2562H14.535V53.4492Z" fill="black"/>
<path d="M17.3422 53.4492H14.5352V56.2562H17.3422V53.4492Z" fill="black"/>
<path d="M20.1491 53.4492H17.342V56.2562H20.1491V53.4492Z" fill="black"/>
<path d="M28.5702 53.4492H25.7632V56.2562H28.5702V53.4492Z" fill="black"/>
<path d="M36.9911 53.4492H34.1841V56.2562H36.9911V53.4492Z" fill="black"/>
<path d="M45.4122 53.4492H42.6052V56.2562H45.4122V53.4492Z" fill="black"/>
<path d="M53.8334 53.4492H51.0264V56.2562H53.8334V53.4492Z" fill="black"/>
<path d="M62.2543 53.4492H59.4473V56.2562H62.2543V53.4492Z" fill="black"/>
<path d="M65.0614 53.4492H62.2544V56.2562H65.0614V53.4492Z" fill="black"/>
<path d="M70.6754 53.4492H67.8684V56.2562H70.6754V53.4492Z" fill="black"/>
<path d="M79.0966 53.4492H76.2896V56.2562H79.0966V53.4492Z" fill="black"/>
<path d="M84.7106 53.4492H81.9036V56.2562H84.7106V53.4492Z" fill="black"/>
<path d="M87.5175 53.4492H84.7104V56.2562H87.5175V53.4492Z" fill="black"/>
<path d="M93.1315 53.4492H90.3245V56.2562H93.1315V53.4492Z" fill="black"/>
<path d="M95.9386 53.4492H93.1316V56.2562H95.9386V53.4492Z" fill="black"/>
<path d="M101.553 53.4492H98.7456V56.2562H101.553V53.4492Z" fill="black"/>
<path d="M107.167 53.4492H104.36V56.2562H107.167V53.4492Z" fill="black"/>
<path d="M109.974 53.4492H107.167V56.2562H109.974V53.4492Z" fill="black"/>
<path d="M112.781 53.4492H109.974V56.2562H112.781V53.4492Z" fill="black"/>
<path d="M118.395 53.4492H115.588V56.2562H118.395V53.4492Z" fill="black"/>
<path d="M121.202 53.4492H118.395V56.2562H121.202V53.4492Z" fill="black"/>
<path d="M124.009 53.4492H121.202V56.2562H124.009V53.4492Z" fill="black"/>
<path d="M126.816 53.4492H124.009V56.2562H126.816V53.4492Z" fill="black"/>
<path d="M129.623 53.4492H126.816V56.2562H129.623V53.4492Z" fill="black"/>
<path d="M143.658 53.4492H140.851V56.2562H143.658V53.4492Z" fill="black"/>
<path d="M146.465 53.4492H143.658V56.2562H146.465V53.4492Z" fill="black"/>
<path d="M154.886 53.4492H152.079V56.2562H154.886V53.4492Z" fill="black"/>
<path d="M11.7282 56.2563H8.92114V59.0634H11.7282V56.2563Z" fill="black"/>
<path d="M17.3422 56.2563H14.5352V59.0634H17.3422V56.2563Z" fill="black"/>
<path d="M20.1491 56.2563H17.342V59.0634H20.1491V56.2563Z" fill="black"/>
<path d="M22.9562 56.2563H20.1492V59.0634H22.9562V56.2563Z" fill="black"/>
<path d="M25.7631 56.2563H22.9561V59.0634H25.7631V56.2563Z" fill="black"/>
<path d="M53.8334 56.2563H51.0264V59.0634H53.8334V56.2563Z" fill="black"/>
<path d="M59.4474 56.2563H56.6404V59.0634H59.4474V56.2563Z" fill="black"/>
<path d="M62.2543 56.2563H59.4473V59.0634H62.2543V56.2563Z" fill="black"/>
<path d="M65.0614 56.2563H62.2544V59.0634H65.0614V56.2563Z" fill="black"/>
<path d="M67.8683 56.2563H65.0613V59.0634H67.8683V56.2563Z" fill="black"/>
<path d="M90.3246 56.2563H87.5176V59.0634H90.3246V56.2563Z" fill="black"/>
<path d="M98.7455 56.2563H95.9385V59.0634H98.7455V56.2563Z" fill="black"/>
<path d="M104.36 56.2563H101.553V59.0634H104.36V56.2563Z" fill="black"/>
<path d="M109.974 56.2563H107.167V59.0634H109.974V56.2563Z" fill="black"/>
<path d="M132.43 56.2563H129.623V59.0634H132.43V56.2563Z" fill="black"/>
<path d="M135.237 56.2563H132.43V59.0634H135.237V56.2563Z" fill="black"/>
<path d="M138.044 56.2563H135.237V59.0634H138.044V56.2563Z" fill="black"/>
<path d="M143.658 56.2563H140.851V59.0634H143.658V56.2563Z" fill="black"/>
<path d="M149.272 56.2563H146.465V59.0634H149.272V56.2563Z" fill="black"/>
<path d="M20.1491 59.0635H17.342V61.8705H20.1491V59.0635Z" fill="black"/>
<path d="M34.1842 59.0635H31.3772V61.8705H34.1842V59.0635Z" fill="black"/>
<path d="M36.9911 59.0635H34.1841V61.8705H36.9911V59.0635Z" fill="black"/>
<path d="M39.7982 59.0635H36.9912V61.8705H39.7982V59.0635Z" fill="black"/>
<path d="M48.2194 59.0635H45.4124V61.8705H48.2194V59.0635Z" fill="black"/>
<path d="M56.6403 59.0635H53.8333V61.8705H56.6403V59.0635Z" fill="black"/>
<path d="M73.4823 59.0635H70.6753V61.8705H73.4823V59.0635Z" fill="black"/>
<path d="M76.2894 59.0635H73.4824V61.8705H76.2894V59.0635Z" fill="black"/>
<path d="M79.0966 59.0635H76.2896V61.8705H79.0966V59.0635Z" fill="black"/>
<path d="M93.1315 59.0635H90.3245V61.8705H93.1315V59.0635Z" fill="black"/>
<path d="M95.9386 59.0635H93.1316V61.8705H95.9386V59.0635Z" fill="black"/>
<path d="M101.553 59.0635H98.7456V61.8705H101.553V59.0635Z" fill="black"/>
<path d="M104.36 59.0635H101.553V61.8705H104.36V59.0635Z" fill="black"/>
<path d="M109.974 59.0635H107.167V61.8705H109.974V59.0635Z" fill="black"/>
<path d="M121.202 59.0635H118.395V61.8705H121.202V59.0635Z" fill="black"/>
<path d="M132.43 59.0635H129.623V61.8705H132.43V59.0635Z" fill="black"/>
<path d="M135.237 59.0635H132.43V61.8705H135.237V59.0635Z" fill="black"/>
<path d="M146.465 59.0635H143.658V61.8705H146.465V59.0635Z" fill="black"/>
<path d="M8.92103 61.8701H6.11401V64.6771H8.92103V61.8701Z" fill="black"/>
<path d="M14.535 61.8701H11.728V64.6771H14.535V61.8701Z" fill="black"/>
<path d="M17.3422 61.8701H14.5352V64.6771H17.3422V61.8701Z" fill="black"/>
<path d="M20.1491 61.8701H17.342V64.6771H20.1491V61.8701Z" fill="black"/>
<path d="M22.9562 61.8701H20.1492V64.6771H22.9562V61.8701Z" fill="black"/>
<path d="M25.7631 61.8701H22.9561V64.6771H25.7631V61.8701Z" fill="black"/>
<path d="M36.9911 61.8701H34.1841V64.6771H36.9911V61.8701Z" fill="black"/>
<path d="M45.4122 61.8701H42.6052V64.6771H45.4122V61.8701Z" fill="black"/>
<path d="M48.2194 61.8701H45.4124V64.6771H48.2194V61.8701Z" fill="black"/>
<path d="M51.0263 61.8701H48.2192V64.6771H51.0263V61.8701Z" fill="black"/>
<path d="M56.6403 61.8701H53.8333V64.6771H56.6403V61.8701Z" fill="black"/>
<path d="M62.2543 61.8701H59.4473V64.6771H62.2543V61.8701Z" fill="black"/>
<path d="M73.4823 61.8701H70.6753V64.6771H73.4823V61.8701Z" fill="black"/>
<path d="M76.2894 61.8701H73.4824V64.6771H76.2894V61.8701Z" fill="black"/>
<path d="M84.7106 61.8701H81.9036V64.6771H84.7106V61.8701Z" fill="black"/>
<path d="M95.9386 61.8701H93.1316V64.6771H95.9386V61.8701Z" fill="black"/>
<path d="M101.553 61.8701H98.7456V64.6771H101.553V61.8701Z" fill="black"/>
<path d="M104.36 61.8701H101.553V64.6771H104.36V61.8701Z" fill="black"/>
<path d="M107.167 61.8701H104.36V64.6771H107.167V61.8701Z" fill="black"/>
<path d="M109.974 61.8701H107.167V64.6771H109.974V61.8701Z" fill="black"/>
<path d="M115.588 61.8701H112.781V64.6771H115.588V61.8701Z" fill="black"/>
<path d="M118.395 61.8701H115.588V64.6771H118.395V61.8701Z" fill="black"/>
<path d="M124.009 61.8701H121.202V64.6771H124.009V61.8701Z" fill="black"/>
<path d="M126.816 61.8701H124.009V64.6771H126.816V61.8701Z" fill="black"/>
<path d="M140.851 61.8701H138.044V64.6771H140.851V61.8701Z" fill="black"/>
<path d="M143.658 61.8701H140.851V64.6771H143.658V61.8701Z" fill="black"/>
<path d="M149.272 61.8701H146.465V64.6771H149.272V61.8701Z" fill="black"/>
<path d="M152.079 61.8701H149.272V64.6771H152.079V61.8701Z" fill="black"/>
<path d="M154.886 61.8701H152.079V64.6771H154.886V61.8701Z" fill="black"/>
<path d="M8.92103 64.6772H6.11401V67.4843H8.92103V64.6772Z" fill="black"/>
<path d="M14.535 64.6772H11.728V67.4843H14.535V64.6772Z" fill="black"/>
<path d="M17.3422 64.6772H14.5352V67.4843H17.3422V64.6772Z" fill="black"/>
<path d="M20.1491 64.6772H17.342V67.4843H20.1491V64.6772Z" fill="black"/>
<path d="M22.9562 64.6772H20.1492V67.4843H22.9562V64.6772Z" fill="black"/>
<path d="M28.5702 64.6772H25.7632V67.4843H28.5702V64.6772Z" fill="black"/>
<path d="M34.1842 64.6772H31.3772V67.4843H34.1842V64.6772Z" fill="black"/>
<path d="M39.7982 64.6772H36.9912V67.4843H39.7982V64.6772Z" fill="black"/>
<path d="M48.2194 64.6772H45.4124V67.4843H48.2194V64.6772Z" fill="black"/>
<path d="M53.8334 64.6772H51.0264V67.4843H53.8334V64.6772Z" fill="black"/>
<path d="M56.6403 64.6772H53.8333V67.4843H56.6403V64.6772Z" fill="black"/>
<path d="M62.2543 64.6772H59.4473V67.4843H62.2543V64.6772Z" fill="black"/>
<path d="M81.9035 64.6772H79.0964V67.4843H81.9035V64.6772Z" fill="black"/>
<path d="M84.7106 64.6772H81.9036V67.4843H84.7106V64.6772Z" fill="black"/>
<path d="M90.3246 64.6772H87.5176V67.4843H90.3246V64.6772Z" fill="black"/>
<path d="M93.1315 64.6772H90.3245V67.4843H93.1315V64.6772Z" fill="black"/>
<path d="M98.7455 64.6772H95.9385V67.4843H98.7455V64.6772Z" fill="black"/>
<path d="M101.553 64.6772H98.7456V67.4843H101.553V64.6772Z" fill="black"/>
<path d="M107.167 64.6772H104.36V67.4843H107.167V64.6772Z" fill="black"/>
<path d="M118.395 64.6772H115.588V67.4843H118.395V64.6772Z" fill="black"/>
<path d="M121.202 64.6772H118.395V67.4843H121.202V64.6772Z" fill="black"/>
<path d="M124.009 64.6772H121.202V67.4843H124.009V64.6772Z" fill="black"/>
<path d="M126.816 64.6772H124.009V67.4843H126.816V64.6772Z" fill="black"/>
<path d="M129.623 64.6772H126.816V67.4843H129.623V64.6772Z" fill="black"/>
<path d="M140.851 64.6772H138.044V67.4843H140.851V64.6772Z" fill="black"/>
<path d="M152.079 64.6772H149.272V67.4843H152.079V64.6772Z" fill="black"/>
<path d="M154.886 64.6772H152.079V67.4843H154.886V64.6772Z" fill="black"/>
<path d="M14.535 67.4844H11.728V70.2914H14.535V67.4844Z" fill="black"/>
<path d="M17.3422 67.4844H14.5352V70.2914H17.3422V67.4844Z" fill="black"/>
<path d="M22.9562 67.4844H20.1492V70.2914H22.9562V67.4844Z" fill="black"/>
<path d="M25.7631 67.4844H22.9561V70.2914H25.7631V67.4844Z" fill="black"/>
<path d="M31.3771 67.4844H28.5701V70.2914H31.3771V67.4844Z" fill="black"/>
<path d="M36.9911 67.4844H34.1841V70.2914H36.9911V67.4844Z" fill="black"/>
<path d="M45.4122 67.4844H42.6052V70.2914H45.4122V67.4844Z" fill="black"/>
<path d="M48.2194 67.4844H45.4124V70.2914H48.2194V67.4844Z" fill="black"/>
<path d="M67.8683 67.4844H65.0613V70.2914H67.8683V67.4844Z" fill="black"/>
<path d="M76.2894 67.4844H73.4824V70.2914H76.2894V67.4844Z" fill="black"/>
<path d="M79.0966 67.4844H76.2896V70.2914H79.0966V67.4844Z" fill="black"/>
<path d="M81.9035 67.4844H79.0964V70.2914H81.9035V67.4844Z" fill="black"/>
<path d="M93.1315 67.4844H90.3245V70.2914H93.1315V67.4844Z" fill="black"/>
<path d="M98.7455 67.4844H95.9385V70.2914H98.7455V67.4844Z" fill="black"/>
<path d="M104.36 67.4844H101.553V70.2914H104.36V67.4844Z" fill="black"/>
<path d="M107.167 67.4844H104.36V70.2914H107.167V67.4844Z" fill="black"/>
<path d="M112.781 67.4844H109.974V70.2914H112.781V67.4844Z" fill="black"/>
<path d="M115.588 67.4844H112.781V70.2914H115.588V67.4844Z" fill="black"/>
<path d="M129.623 67.4844H126.816V70.2914H129.623V67.4844Z" fill="black"/>
<path d="M132.43 67.4844H129.623V70.2914H132.43V67.4844Z" fill="black"/>
<path d="M135.237 67.4844H132.43V70.2914H135.237V67.4844Z" fill="black"/>
<path d="M138.044 67.4844H135.237V70.2914H138.044V67.4844Z" fill="black"/>
<path d="M143.658 67.4844H140.851V70.2914H143.658V67.4844Z" fill="black"/>
<path d="M146.465 67.4844H143.658V70.2914H146.465V67.4844Z" fill="black"/>
<path d="M149.272 67.4844H146.465V70.2914H149.272V67.4844Z" fill="black"/>
<path d="M11.7282 70.2915H8.92114V73.0985H11.7282V70.2915Z" fill="black"/>
<path d="M14.535 70.2915H11.728V73.0985H14.535V70.2915Z" fill="black"/>
<path d="M31.3771 70.2915H28.5701V73.0985H31.3771V70.2915Z" fill="black"/>
<path d="M45.4122 70.2915H42.6052V73.0985H45.4122V70.2915Z" fill="black"/>
<path d="M48.2194 70.2915H45.4124V73.0985H48.2194V70.2915Z" fill="black"/>
<path d="M51.0263 70.2915H48.2192V73.0985H51.0263V70.2915Z" fill="black"/>
<path d="M53.8334 70.2915H51.0264V73.0985H53.8334V70.2915Z" fill="black"/>
<path d="M56.6403 70.2915H53.8333V73.0985H56.6403V70.2915Z" fill="black"/>
<path d="M59.4474 70.2915H56.6404V73.0985H59.4474V70.2915Z" fill="black"/>
<path d="M70.6754 70.2915H67.8684V73.0985H70.6754V70.2915Z" fill="black"/>
<path d="M73.4823 70.2915H70.6753V73.0985H73.4823V70.2915Z" fill="black"/>
<path d="M76.2894 70.2915H73.4824V73.0985H76.2894V70.2915Z" fill="black"/>
<path d="M79.0966 70.2915H76.2896V73.0985H79.0966V70.2915Z" fill="black"/>
<path d="M90.3246 70.2915H87.5176V73.0985H90.3246V70.2915Z" fill="black"/>
<path d="M93.1315 70.2915H90.3245V73.0985H93.1315V70.2915Z" fill="black"/>
<path d="M101.553 70.2915H98.7456V73.0985H101.553V70.2915Z" fill="black"/>
<path d="M104.36 70.2915H101.553V73.0985H104.36V70.2915Z" fill="black"/>
<path d="M107.167 70.2915H104.36V73.0985H107.167V70.2915Z" fill="black"/>
<path d="M118.395 70.2915H115.588V73.0985H118.395V70.2915Z" fill="black"/>
<path d="M121.202 70.2915H118.395V73.0985H121.202V70.2915Z" fill="black"/>
<path d="M126.816 70.2915H124.009V73.0985H126.816V70.2915Z" fill="black"/>
<path d="M143.658 70.2915H140.851V73.0985H143.658V70.2915Z" fill="black"/>
<path d="M146.465 70.2915H143.658V73.0985H146.465V70.2915Z" fill="black"/>
<path d="M152.079 70.2915H149.272V73.0985H152.079V70.2915Z" fill="black"/>
<path d="M8.92103 73.0986H6.11401V75.9057H8.92103V73.0986Z" fill="black"/>
<path d="M11.7282 73.0986H8.92114V75.9057H11.7282V73.0986Z" fill="black"/>
<path d="M20.1491 73.0986H17.342V75.9057H20.1491V73.0986Z" fill="black"/>
<path d="M22.9562 73.0986H20.1492V75.9057H22.9562V73.0986Z" fill="black"/>
<path d="M25.7631 73.0986H22.9561V75.9057H25.7631V73.0986Z" fill="black"/>
<path d="M28.5702 73.0986H25.7632V75.9057H28.5702V73.0986Z" fill="black"/>
<path d="M31.3771 73.0986H28.5701V75.9057H31.3771V73.0986Z" fill="black"/>
<path d="M34.1842 73.0986H31.3772V75.9057H34.1842V73.0986Z" fill="black"/>
<path d="M39.7982 73.0986H36.9912V75.9057H39.7982V73.0986Z" fill="black"/>
<path d="M42.6054 73.0986H39.7983V75.9057H42.6054V73.0986Z" fill="black"/>
<path d="M65.0614 73.0986H62.2544V75.9057H65.0614V73.0986Z" fill="black"/>
<path d="M67.8683 73.0986H65.0613V75.9057H67.8683V73.0986Z" fill="black"/>
<path d="M76.2894 73.0986H73.4824V75.9057H76.2894V73.0986Z" fill="black"/>
<path d="M79.0966 73.0986H76.2896V75.9057H79.0966V73.0986Z" fill="black"/>
<path d="M81.9035 73.0986H79.0964V75.9057H81.9035V73.0986Z" fill="black"/>
<path d="M84.7106 73.0986H81.9036V75.9057H84.7106V73.0986Z" fill="black"/>
<path d="M87.5175 73.0986H84.7104V75.9057H87.5175V73.0986Z" fill="black"/>
<path d="M90.3246 73.0986H87.5176V75.9057H90.3246V73.0986Z" fill="black"/>
<path d="M93.1315 73.0986H90.3245V75.9057H93.1315V73.0986Z" fill="black"/>
<path d="M109.974 73.0986H107.167V75.9057H109.974V73.0986Z" fill="black"/>
<path d="M115.588 73.0986H112.781V75.9057H115.588V73.0986Z" fill="black"/>
<path d="M126.816 73.0986H124.009V75.9057H126.816V73.0986Z" fill="black"/>
<path d="M132.43 73.0986H129.623V75.9057H132.43V73.0986Z" fill="black"/>
<path d="M135.237 73.0986H132.43V75.9057H135.237V73.0986Z" fill="black"/>
<path d="M138.044 73.0986H135.237V75.9057H138.044V73.0986Z" fill="black"/>
<path d="M140.851 73.0986H138.044V75.9057H140.851V73.0986Z" fill="black"/>
<path d="M143.658 73.0986H140.851V75.9057H143.658V73.0986Z" fill="black"/>
<path d="M149.272 73.0986H146.465V75.9057H149.272V73.0986Z" fill="black"/>
<path d="M152.079 73.0986H149.272V75.9057H152.079V73.0986Z" fill="black"/>
<path d="M8.92103 75.9053H6.11401V78.7123H8.92103V75.9053Z" fill="black"/>
<path d="M14.535 75.9053H11.728V78.7123H14.535V75.9053Z" fill="black"/>
<path d="M20.1491 75.9053H17.342V78.7123H20.1491V75.9053Z" fill="black"/>
<path d="M31.3771 75.9053H28.5701V78.7123H31.3771V75.9053Z" fill="black"/>
<path d="M51.0263 75.9053H48.2192V78.7123H51.0263V75.9053Z" fill="black"/>
<path d="M56.6403 75.9053H53.8333V78.7123H56.6403V75.9053Z" fill="black"/>
<path d="M62.2543 75.9053H59.4473V78.7123H62.2543V75.9053Z" fill="black"/>
<path d="M65.0614 75.9053H62.2544V78.7123H65.0614V75.9053Z" fill="black"/>
<path d="M70.6754 75.9053H67.8684V78.7123H70.6754V75.9053Z" fill="black"/>
<path d="M73.4823 75.9053H70.6753V78.7123H73.4823V75.9053Z" fill="black"/>
<path d="M76.2894 75.9053H73.4824V78.7123H76.2894V75.9053Z" fill="black"/>
<path d="M87.5175 75.9053H84.7104V78.7123H87.5175V75.9053Z" fill="black"/>
<path d="M93.1315 75.9053H90.3245V78.7123H93.1315V75.9053Z" fill="black"/>
<path d="M109.974 75.9053H107.167V78.7123H109.974V75.9053Z" fill="black"/>
<path d="M112.781 75.9053H109.974V78.7123H112.781V75.9053Z" fill="black"/>
<path d="M118.395 75.9053H115.588V78.7123H118.395V75.9053Z" fill="black"/>
<path d="M124.009 75.9053H121.202V78.7123H124.009V75.9053Z" fill="black"/>
<path d="M126.816 75.9053H124.009V78.7123H126.816V75.9053Z" fill="black"/>
<path d="M129.623 75.9053H126.816V78.7123H129.623V75.9053Z" fill="black"/>
<path d="M132.43 75.9053H129.623V78.7123H132.43V75.9053Z" fill="black"/>
<path d="M143.658 75.9053H140.851V78.7123H143.658V75.9053Z" fill="black"/>
<path d="M146.465 75.9053H143.658V78.7123H146.465V75.9053Z" fill="black"/>
<path d="M154.886 75.9053H152.079V78.7123H154.886V75.9053Z" fill="black"/>
<path d="M8.92103 78.7124H6.11401V81.5194H8.92103V78.7124Z" fill="black"/>
<path d="M11.7282 78.7124H8.92114V81.5194H11.7282V78.7124Z" fill="black"/>
<path d="M20.1491 78.7124H17.342V81.5194H20.1491V78.7124Z" fill="black"/>
<path d="M25.7631 78.7124H22.9561V81.5194H25.7631V78.7124Z" fill="black"/>
<path d="M31.3771 78.7124H28.5701V81.5194H31.3771V78.7124Z" fill="black"/>
<path d="M34.1842 78.7124H31.3772V81.5194H34.1842V78.7124Z" fill="black"/>
<path d="M36.9911 78.7124H34.1841V81.5194H36.9911V78.7124Z" fill="black"/>
<path d="M39.7982 78.7124H36.9912V81.5194H39.7982V78.7124Z" fill="black"/>
<path d="M42.6054 78.7124H39.7983V81.5194H42.6054V78.7124Z" fill="black"/>
<path d="M45.4122 78.7124H42.6052V81.5194H45.4122V78.7124Z" fill="black"/>
<path d="M48.2194 78.7124H45.4124V81.5194H48.2194V78.7124Z" fill="black"/>
<path d="M53.8334 78.7124H51.0264V81.5194H53.8334V78.7124Z" fill="black"/>
<path d="M62.2543 78.7124H59.4473V81.5194H62.2543V78.7124Z" fill="black"/>
<path d="M67.8683 78.7124H65.0613V81.5194H67.8683V78.7124Z" fill="black"/>
<path d="M73.4823 78.7124H70.6753V81.5194H73.4823V78.7124Z" fill="black"/>
<path d="M76.2894 78.7124H73.4824V81.5194H76.2894V78.7124Z" fill="black"/>
<path d="M81.9035 78.7124H79.0964V81.5194H81.9035V78.7124Z" fill="black"/>
<path d="M87.5175 78.7124H84.7104V81.5194H87.5175V78.7124Z" fill="black"/>
<path d="M90.3246 78.7124H87.5176V81.5194H90.3246V78.7124Z" fill="black"/>
<path d="M101.553 78.7124H98.7456V81.5194H101.553V78.7124Z" fill="black"/>
<path d="M104.36 78.7124H101.553V81.5194H104.36V78.7124Z" fill="black"/>
<path d="M109.974 78.7124H107.167V81.5194H109.974V78.7124Z" fill="black"/>
<path d="M112.781 78.7124H109.974V81.5194H112.781V78.7124Z" fill="black"/>
<path d="M124.009 78.7124H121.202V81.5194H124.009V78.7124Z" fill="black"/>
<path d="M132.43 78.7124H129.623V81.5194H132.43V78.7124Z" fill="black"/>
<path d="M138.044 78.7124H135.237V81.5194H138.044V78.7124Z" fill="black"/>
<path d="M143.658 78.7124H140.851V81.5194H143.658V78.7124Z" fill="black"/>
<path d="M146.465 78.7124H143.658V81.5194H146.465V78.7124Z" fill="black"/>
<path d="M8.92103 81.5195H6.11401V84.3265H8.92103V81.5195Z" fill="black"/>
<path d="M11.7282 81.5195H8.92114V84.3265H11.7282V81.5195Z" fill="black"/>
<path d="M20.1491 81.5195H17.342V84.3265H20.1491V81.5195Z" fill="black"/>
<path d="M31.3771 81.5195H28.5701V84.3265H31.3771V81.5195Z" fill="black"/>
<path d="M34.1842 81.5195H31.3772V84.3265H34.1842V81.5195Z" fill="black"/>
<path d="M48.2194 81.5195H45.4124V84.3265H48.2194V81.5195Z" fill="black"/>
<path d="M51.0263 81.5195H48.2192V84.3265H51.0263V81.5195Z" fill="black"/>
<path d="M53.8334 81.5195H51.0264V84.3265H53.8334V81.5195Z" fill="black"/>
<path d="M59.4474 81.5195H56.6404V84.3265H59.4474V81.5195Z" fill="black"/>
<path d="M65.0614 81.5195H62.2544V84.3265H65.0614V81.5195Z" fill="black"/>
<path d="M76.2894 81.5195H73.4824V84.3265H76.2894V81.5195Z" fill="black"/>
<path d="M87.5175 81.5195H84.7104V84.3265H87.5175V81.5195Z" fill="black"/>
<path d="M95.9386 81.5195H93.1316V84.3265H95.9386V81.5195Z" fill="black"/>
<path d="M98.7455 81.5195H95.9385V84.3265H98.7455V81.5195Z" fill="black"/>
<path d="M104.36 81.5195H101.553V84.3265H104.36V81.5195Z" fill="black"/>
<path d="M118.395 81.5195H115.588V84.3265H118.395V81.5195Z" fill="black"/>
<path d="M121.202 81.5195H118.395V84.3265H121.202V81.5195Z" fill="black"/>
<path d="M126.816 81.5195H124.009V84.3265H126.816V81.5195Z" fill="black"/>
<path d="M132.43 81.5195H129.623V84.3265H132.43V81.5195Z" fill="black"/>
<path d="M143.658 81.5195H140.851V84.3265H143.658V81.5195Z" fill="black"/>
<path d="M146.465 81.5195H143.658V84.3265H146.465V81.5195Z" fill="black"/>
<path d="M20.1491 84.3267H17.342V87.1337H20.1491V84.3267Z" fill="black"/>
<path d="M22.9562 84.3267H20.1492V87.1337H22.9562V84.3267Z" fill="black"/>
<path d="M25.7631 84.3267H22.9561V87.1337H25.7631V84.3267Z" fill="black"/>
<path d="M28.5702 84.3267H25.7632V87.1337H28.5702V84.3267Z" fill="black"/>
<path d="M31.3771 84.3267H28.5701V87.1337H31.3771V84.3267Z" fill="black"/>
<path d="M45.4122 84.3267H42.6052V87.1337H45.4122V84.3267Z" fill="black"/>
<path d="M53.8334 84.3267H51.0264V87.1337H53.8334V84.3267Z" fill="black"/>
<path d="M73.4823 84.3267H70.6753V87.1337H73.4823V84.3267Z" fill="black"/>
<path d="M76.2894 84.3267H73.4824V87.1337H76.2894V84.3267Z" fill="black"/>
<path d="M79.0966 84.3267H76.2896V87.1337H79.0966V84.3267Z" fill="black"/>
<path d="M81.9035 84.3267H79.0964V87.1337H81.9035V84.3267Z" fill="black"/>
<path d="M84.7106 84.3267H81.9036V87.1337H84.7106V84.3267Z" fill="black"/>
<path d="M87.5175 84.3267H84.7104V87.1337H87.5175V84.3267Z" fill="black"/>
<path d="M101.553 84.3267H98.7456V87.1337H101.553V84.3267Z" fill="black"/>
<path d="M107.167 84.3267H104.36V87.1337H107.167V84.3267Z" fill="black"/>
<path d="M109.974 84.3267H107.167V87.1337H109.974V84.3267Z" fill="black"/>
<path d="M132.43 84.3267H129.623V87.1337H132.43V84.3267Z" fill="black"/>
<path d="M135.237 84.3267H132.43V87.1337H135.237V84.3267Z" fill="black"/>
<path d="M138.044 84.3267H135.237V87.1337H138.044V84.3267Z" fill="black"/>
<path d="M140.851 84.3267H138.044V87.1337H140.851V84.3267Z" fill="black"/>
<path d="M143.658 84.3267H140.851V87.1337H143.658V84.3267Z" fill="black"/>
<path d="M152.079 84.3267H149.272V87.1337H152.079V84.3267Z" fill="black"/>
<path d="M154.886 84.3267H152.079V87.1337H154.886V84.3267Z" fill="black"/>
<path d="M17.3422 87.1333H14.5352V89.9403H17.3422V87.1333Z" fill="black"/>
<path d="M22.9562 87.1333H20.1492V89.9403H22.9562V87.1333Z" fill="black"/>
<path d="M31.3771 87.1333H28.5701V89.9403H31.3771V87.1333Z" fill="black"/>
<path d="M36.9911 87.1333H34.1841V89.9403H36.9911V87.1333Z" fill="black"/>
<path d="M45.4122 87.1333H42.6052V89.9403H45.4122V87.1333Z" fill="black"/>
<path d="M48.2194 87.1333H45.4124V89.9403H48.2194V87.1333Z" fill="black"/>
<path d="M67.8683 87.1333H65.0613V89.9403H67.8683V87.1333Z" fill="black"/>
<path d="M70.6754 87.1333H67.8684V89.9403H70.6754V87.1333Z" fill="black"/>
<path d="M79.0966 87.1333H76.2896V89.9403H79.0966V87.1333Z" fill="black"/>
<path d="M90.3246 87.1333H87.5176V89.9403H90.3246V87.1333Z" fill="black"/>
<path d="M93.1315 87.1333H90.3245V89.9403H93.1315V87.1333Z" fill="black"/>
<path d="M101.553 87.1333H98.7456V89.9403H101.553V87.1333Z" fill="black"/>
<path d="M107.167 87.1333H104.36V89.9403H107.167V87.1333Z" fill="black"/>
<path d="M109.974 87.1333H107.167V89.9403H109.974V87.1333Z" fill="black"/>
<path d="M112.781 87.1333H109.974V89.9403H112.781V87.1333Z" fill="black"/>
<path d="M118.395 87.1333H115.588V89.9403H118.395V87.1333Z" fill="black"/>
<path d="M121.202 87.1333H118.395V89.9403H121.202V87.1333Z" fill="black"/>
<path d="M124.009 87.1333H121.202V89.9403H124.009V87.1333Z" fill="black"/>
<path d="M126.816 87.1333H124.009V89.9403H126.816V87.1333Z" fill="black"/>
<path d="M132.43 87.1333H129.623V89.9403H132.43V87.1333Z" fill="black"/>
<path d="M143.658 87.1333H140.851V89.9403H143.658V87.1333Z" fill="black"/>
<path d="M152.079 87.1333H149.272V89.9403H152.079V87.1333Z" fill="black"/>
<path d="M8.92103 89.9404H6.11401V92.7474H8.92103V89.9404Z" fill="black"/>
<path d="M25.7631 89.9404H22.9561V92.7474H25.7631V89.9404Z" fill="black"/>
<path d="M36.9911 89.9404H34.1841V92.7474H36.9911V89.9404Z" fill="black"/>
<path d="M45.4122 89.9404H42.6052V92.7474H45.4122V89.9404Z" fill="black"/>
<path d="M48.2194 89.9404H45.4124V92.7474H48.2194V89.9404Z" fill="black"/>
<path d="M53.8334 89.9404H51.0264V92.7474H53.8334V89.9404Z" fill="black"/>
<path d="M56.6403 89.9404H53.8333V92.7474H56.6403V89.9404Z" fill="black"/>
<path d="M62.2543 89.9404H59.4473V92.7474H62.2543V89.9404Z" fill="black"/>
<path d="M65.0614 89.9404H62.2544V92.7474H65.0614V89.9404Z" fill="black"/>
<path d="M79.0966 89.9404H76.2896V92.7474H79.0966V89.9404Z" fill="black"/>
<path d="M84.7106 89.9404H81.9036V92.7474H84.7106V89.9404Z" fill="black"/>
<path d="M90.3246 89.9404H87.5176V92.7474H90.3246V89.9404Z" fill="black"/>
<path d="M93.1315 89.9404H90.3245V92.7474H93.1315V89.9404Z" fill="black"/>
<path d="M98.7455 89.9404H95.9385V92.7474H98.7455V89.9404Z" fill="black"/>
<path d="M104.36 89.9404H101.553V92.7474H104.36V89.9404Z" fill="black"/>
<path d="M107.167 89.9404H104.36V92.7474H107.167V89.9404Z" fill="black"/>
<path d="M115.588 89.9404H112.781V92.7474H115.588V89.9404Z" fill="black"/>
<path d="M121.202 89.9404H118.395V92.7474H121.202V89.9404Z" fill="black"/>
<path d="M126.816 89.9404H124.009V92.7474H126.816V89.9404Z" fill="black"/>
<path d="M129.623 89.9404H126.816V92.7474H129.623V89.9404Z" fill="black"/>
<path d="M146.465 89.9404H143.658V92.7474H146.465V89.9404Z" fill="black"/>
<path d="M149.272 89.9404H146.465V92.7474H149.272V89.9404Z" fill="black"/>
<path d="M11.7282 92.7476H8.92114V95.5546H11.7282V92.7476Z" fill="black"/>
<path d="M14.535 92.7476H11.728V95.5546H14.535V92.7476Z" fill="black"/>
<path d="M17.3422 92.7476H14.5352V95.5546H17.3422V92.7476Z" fill="black"/>
<path d="M20.1491 92.7476H17.342V95.5546H20.1491V92.7476Z" fill="black"/>
<path d="M22.9562 92.7476H20.1492V95.5546H22.9562V92.7476Z" fill="black"/>
<path d="M28.5702 92.7476H25.7632V95.5546H28.5702V92.7476Z" fill="black"/>
<path d="M31.3771 92.7476H28.5701V95.5546H31.3771V92.7476Z" fill="black"/>
<path d="M34.1842 92.7476H31.3772V95.5546H34.1842V92.7476Z" fill="black"/>
<path d="M36.9911 92.7476H34.1841V95.5546H36.9911V92.7476Z" fill="black"/>
<path d="M39.7982 92.7476H36.9912V95.5546H39.7982V92.7476Z" fill="black"/>
<path d="M48.2194 92.7476H45.4124V95.5546H48.2194V92.7476Z" fill="black"/>
<path d="M53.8334 92.7476H51.0264V95.5546H53.8334V92.7476Z" fill="black"/>
<path d="M56.6403 92.7476H53.8333V95.5546H56.6403V92.7476Z" fill="black"/>
<path d="M62.2543 92.7476H59.4473V95.5546H62.2543V92.7476Z" fill="black"/>
<path d="M67.8683 92.7476H65.0613V95.5546H67.8683V92.7476Z" fill="black"/>
<path d="M76.2894 92.7476H73.4824V95.5546H76.2894V92.7476Z" fill="black"/>
<path d="M93.1315 92.7476H90.3245V95.5546H93.1315V92.7476Z" fill="black"/>
<path d="M98.7455 92.7476H95.9385V95.5546H98.7455V92.7476Z" fill="black"/>
<path d="M104.36 92.7476H101.553V95.5546H104.36V92.7476Z" fill="black"/>
<path d="M109.974 92.7476H107.167V95.5546H109.974V92.7476Z" fill="black"/>
<path d="M115.588 92.7476H112.781V95.5546H115.588V92.7476Z" fill="black"/>
<path d="M118.395 92.7476H115.588V95.5546H118.395V92.7476Z" fill="black"/>
<path d="M121.202 92.7476H118.395V95.5546H121.202V92.7476Z" fill="black"/>
<path d="M124.009 92.7476H121.202V95.5546H124.009V92.7476Z" fill="black"/>
<path d="M126.816 92.7476H124.009V95.5546H126.816V92.7476Z" fill="black"/>
<path d="M129.623 92.7476H126.816V95.5546H129.623V92.7476Z" fill="black"/>
<path d="M132.43 92.7476H129.623V95.5546H132.43V92.7476Z" fill="black"/>
<path d="M135.237 92.7476H132.43V95.5546H135.237V92.7476Z" fill="black"/>
<path d="M138.044 92.7476H135.237V95.5546H138.044V92.7476Z" fill="black"/>
<path d="M140.851 92.7476H138.044V95.5546H140.851V92.7476Z" fill="black"/>
<path d="M149.272 92.7476H146.465V95.5546H149.272V92.7476Z" fill="black"/>
<path d="M152.079 92.7476H149.272V95.5546H152.079V92.7476Z" fill="black"/>
<path d="M8.92103 95.5547H6.11401V98.3617H8.92103V95.5547Z" fill="black"/>
<path d="M14.535 95.5547H11.728V98.3617H14.535V95.5547Z" fill="black"/>
<path d="M17.3422 95.5547H14.5352V98.3617H17.3422V95.5547Z" fill="black"/>
<path d="M20.1491 95.5547H17.342V98.3617H20.1491V95.5547Z" fill="black"/>
<path d="M25.7631 95.5547H22.9561V98.3617H25.7631V95.5547Z" fill="black"/>
<path d="M28.5702 95.5547H25.7632V98.3617H28.5702V95.5547Z" fill="black"/>
<path d="M31.3771 95.5547H28.5701V98.3617H31.3771V95.5547Z" fill="black"/>
<path d="M34.1842 95.5547H31.3772V98.3617H34.1842V95.5547Z" fill="black"/>
<path d="M36.9911 95.5547H34.1841V98.3617H36.9911V95.5547Z" fill="black"/>
<path d="M42.6054 95.5547H39.7983V98.3617H42.6054V95.5547Z" fill="black"/>
<path d="M48.2194 95.5547H45.4124V98.3617H48.2194V95.5547Z" fill="black"/>
<path d="M56.6403 95.5547H53.8333V98.3617H56.6403V95.5547Z" fill="black"/>
<path d="M59.4474 95.5547H56.6404V98.3617H59.4474V95.5547Z" fill="black"/>
<path d="M62.2543 95.5547H59.4473V98.3617H62.2543V95.5547Z" fill="black"/>
<path d="M67.8683 95.5547H65.0613V98.3617H67.8683V95.5547Z" fill="black"/>
<path d="M73.4823 95.5547H70.6753V98.3617H73.4823V95.5547Z" fill="black"/>
<path d="M76.2894 95.5547H73.4824V98.3617H76.2894V95.5547Z" fill="black"/>
<path d="M95.9386 95.5547H93.1316V98.3617H95.9386V95.5547Z" fill="black"/>
<path d="M101.553 95.5547H98.7456V98.3617H101.553V95.5547Z" fill="black"/>
<path d="M107.167 95.5547H104.36V98.3617H107.167V95.5547Z" fill="black"/>
<path d="M109.974 95.5547H107.167V98.3617H109.974V95.5547Z" fill="black"/>
<path d="M115.588 95.5547H112.781V98.3617H115.588V95.5547Z" fill="black"/>
<path d="M132.43 95.5547H129.623V98.3617H132.43V95.5547Z" fill="black"/>
<path d="M135.237 95.5547H132.43V98.3617H135.237V95.5547Z" fill="black"/>
<path d="M138.044 95.5547H135.237V98.3617H138.044V95.5547Z" fill="black"/>
<path d="M143.658 95.5547H140.851V98.3617H143.658V95.5547Z" fill="black"/>
<path d="M149.272 95.5547H146.465V98.3617H149.272V95.5547Z" fill="black"/>
<path d="M14.535 98.3613H11.728V101.168H14.535V98.3613Z" fill="black"/>
<path d="M20.1491 98.3613H17.342V101.168H20.1491V98.3613Z" fill="black"/>
<path d="M28.5702 98.3613H25.7632V101.168H28.5702V98.3613Z" fill="black"/>
<path d="M31.3771 98.3613H28.5701V101.168H31.3771V98.3613Z" fill="black"/>
<path d="M36.9911 98.3613H34.1841V101.168H36.9911V98.3613Z" fill="black"/>
<path d="M39.7982 98.3613H36.9912V101.168H39.7982V98.3613Z" fill="black"/>
<path d="M45.4122 98.3613H42.6052V101.168H45.4122V98.3613Z" fill="black"/>
<path d="M48.2194 98.3613H45.4124V101.168H48.2194V98.3613Z" fill="black"/>
<path d="M56.6403 98.3613H53.8333V101.168H56.6403V98.3613Z" fill="black"/>
<path d="M59.4474 98.3613H56.6404V101.168H59.4474V98.3613Z" fill="black"/>
<path d="M62.2543 98.3613H59.4473V101.168H62.2543V98.3613Z" fill="black"/>
<path d="M65.0614 98.3613H62.2544V101.168H65.0614V98.3613Z" fill="black"/>
<path d="M70.6754 98.3613H67.8684V101.168H70.6754V98.3613Z" fill="black"/>
<path d="M79.0966 98.3613H76.2896V101.168H79.0966V98.3613Z" fill="black"/>
<path d="M81.9035 98.3613H79.0964V101.168H81.9035V98.3613Z" fill="black"/>
<path d="M93.1315 98.3613H90.3245V101.168H93.1315V98.3613Z" fill="black"/>
<path d="M95.9386 98.3613H93.1316V101.168H95.9386V98.3613Z" fill="black"/>
<path d="M98.7455 98.3613H95.9385V101.168H98.7455V98.3613Z" fill="black"/>
<path d="M101.553 98.3613H98.7456V101.168H101.553V98.3613Z" fill="black"/>
<path d="M107.167 98.3613H104.36V101.168H107.167V98.3613Z" fill="black"/>
<path d="M109.974 98.3613H107.167V101.168H109.974V98.3613Z" fill="black"/>
<path d="M112.781 98.3613H109.974V101.168H112.781V98.3613Z" fill="black"/>
<path d="M124.009 98.3613H121.202V101.168H124.009V98.3613Z" fill="black"/>
<path d="M135.237 98.3613H132.43V101.168H135.237V98.3613Z" fill="black"/>
<path d="M138.044 98.3613H135.237V101.168H138.044V98.3613Z" fill="black"/>
<path d="M140.851 98.3613H138.044V101.168H140.851V98.3613Z" fill="black"/>
<path d="M143.658 98.3613H140.851V101.168H143.658V98.3613Z" fill="black"/>
<path d="M146.465 98.3613H143.658V101.168H146.465V98.3613Z" fill="black"/>
<path d="M149.272 98.3613H146.465V101.168H149.272V98.3613Z" fill="black"/>
<path d="M152.079 98.3613H149.272V101.168H152.079V98.3613Z" fill="black"/>
<path d="M154.886 98.3613H152.079V101.168H154.886V98.3613Z" fill="black"/>
<path d="M8.92103 101.168H6.11401V103.975H8.92103V101.168Z" fill="black"/>
<path d="M17.3422 101.168H14.5352V103.975H17.3422V101.168Z" fill="black"/>
<path d="M20.1491 101.168H17.342V103.975H20.1491V101.168Z" fill="black"/>
<path d="M22.9562 101.168H20.1492V103.975H22.9562V101.168Z" fill="black"/>
<path d="M25.7631 101.168H22.9561V103.975H25.7631V101.168Z" fill="black"/>
<path d="M36.9911 101.168H34.1841V103.975H36.9911V101.168Z" fill="black"/>
<path d="M45.4122 101.168H42.6052V103.975H45.4122V101.168Z" fill="black"/>
<path d="M51.0263 101.168H48.2192V103.975H51.0263V101.168Z" fill="black"/>
<path d="M62.2543 101.168H59.4473V103.975H62.2543V101.168Z" fill="black"/>
<path d="M65.0614 101.168H62.2544V103.975H65.0614V101.168Z" fill="black"/>
<path d="M70.6754 101.168H67.8684V103.975H70.6754V101.168Z" fill="black"/>
<path d="M76.2894 101.168H73.4824V103.975H76.2894V101.168Z" fill="black"/>
<path d="M84.7106 101.168H81.9036V103.975H84.7106V101.168Z" fill="black"/>
<path d="M93.1315 101.168H90.3245V103.975H93.1315V101.168Z" fill="black"/>
<path d="M101.553 101.168H98.7456V103.975H101.553V101.168Z" fill="black"/>
<path d="M104.36 101.168H101.553V103.975H104.36V101.168Z" fill="black"/>
<path d="M107.167 101.168H104.36V103.975H107.167V101.168Z" fill="black"/>
<path d="M118.395 101.168H115.588V103.975H118.395V101.168Z" fill="black"/>
<path d="M126.816 101.168H124.009V103.975H126.816V101.168Z" fill="black"/>
<path d="M140.851 101.168H138.044V103.975H140.851V101.168Z" fill="black"/>
<path d="M143.658 101.168H140.851V103.975H143.658V101.168Z" fill="black"/>
<path d="M8.92103 103.976H6.11401V106.783H8.92103V103.976Z" fill="black"/>
<path d="M20.1491 103.976H17.342V106.783H20.1491V103.976Z" fill="black"/>
<path d="M22.9562 103.976H20.1492V106.783H22.9562V103.976Z" fill="black"/>
<path d="M28.5702 103.976H25.7632V106.783H28.5702V103.976Z" fill="black"/>
<path d="M34.1842 103.976H31.3772V106.783H34.1842V103.976Z" fill="black"/>
<path d="M36.9911 103.976H34.1841V106.783H36.9911V103.976Z" fill="black"/>
<path d="M39.7982 103.976H36.9912V106.783H39.7982V103.976Z" fill="black"/>
<path d="M45.4122 103.976H42.6052V106.783H45.4122V103.976Z" fill="black"/>
<path d="M51.0263 103.976H48.2192V106.783H51.0263V103.976Z" fill="black"/>
<path d="M53.8334 103.976H51.0264V106.783H53.8334V103.976Z" fill="black"/>
<path d="M56.6403 103.976H53.8333V106.783H56.6403V103.976Z" fill="black"/>
<path d="M73.4823 103.976H70.6753V106.783H73.4823V103.976Z" fill="black"/>
<path d="M76.2894 103.976H73.4824V106.783H76.2894V103.976Z" fill="black"/>
<path d="M79.0966 103.976H76.2896V106.783H79.0966V103.976Z" fill="black"/>
<path d="M95.9386 103.976H93.1316V106.783H95.9386V103.976Z" fill="black"/>
<path d="M101.553 103.976H98.7456V106.783H101.553V103.976Z" fill="black"/>
<path d="M124.009 103.976H121.202V106.783H124.009V103.976Z" fill="black"/>
<path d="M129.623 103.976H126.816V106.783H129.623V103.976Z" fill="black"/>
<path d="M146.465 103.976H143.658V106.783H146.465V103.976Z" fill="black"/>
<path d="M154.886 103.976H152.079V106.783H154.886V103.976Z" fill="black"/>
<path d="M8.92103 106.783H6.11401V109.59H8.92103V106.783Z" fill="black"/>
<path d="M17.3422 106.783H14.5352V109.59H17.3422V106.783Z" fill="black"/>
<path d="M25.7631 106.783H22.9561V109.59H25.7631V106.783Z" fill="black"/>
<path d="M28.5702 106.783H25.7632V109.59H28.5702V106.783Z" fill="black"/>
<path d="M31.3771 106.783H28.5701V109.59H31.3771V106.783Z" fill="black"/>
<path d="M39.7982 106.783H36.9912V109.59H39.7982V106.783Z" fill="black"/>
<path d="M45.4122 106.783H42.6052V109.59H45.4122V106.783Z" fill="black"/>
<path d="M51.0263 106.783H48.2192V109.59H51.0263V106.783Z" fill="black"/>
<path d="M53.8334 106.783H51.0264V109.59H53.8334V106.783Z" fill="black"/>
<path d="M56.6403 106.783H53.8333V109.59H56.6403V106.783Z" fill="black"/>
<path d="M59.4474 106.783H56.6404V109.59H59.4474V106.783Z" fill="black"/>
<path d="M65.0614 106.783H62.2544V109.59H65.0614V106.783Z" fill="black"/>
<path d="M76.2894 106.783H73.4824V109.59H76.2894V106.783Z" fill="black"/>
<path d="M79.0966 106.783H76.2896V109.59H79.0966V106.783Z" fill="black"/>
<path d="M95.9386 106.783H93.1316V109.59H95.9386V106.783Z" fill="black"/>
<path d="M101.553 106.783H98.7456V109.59H101.553V106.783Z" fill="black"/>
<path d="M104.36 106.783H101.553V109.59H104.36V106.783Z" fill="black"/>
<path d="M107.167 106.783H104.36V109.59H107.167V106.783Z" fill="black"/>
<path d="M109.974 106.783H107.167V109.59H109.974V106.783Z" fill="black"/>
<path d="M124.009 106.783H121.202V109.59H124.009V106.783Z" fill="black"/>
<path d="M132.43 106.783H129.623V109.59H132.43V106.783Z" fill="black"/>
<path d="M149.272 106.783H146.465V109.59H149.272V106.783Z" fill="black"/>
<path d="M154.886 106.783H152.079V109.59H154.886V106.783Z" fill="black"/>
<path d="M8.92103 109.59H6.11401V112.397H8.92103V109.59Z" fill="black"/>
<path d="M14.535 109.59H11.728V112.397H14.535V109.59Z" fill="black"/>
<path d="M20.1491 109.59H17.342V112.397H20.1491V109.59Z" fill="black"/>
<path d="M22.9562 109.59H20.1492V112.397H22.9562V109.59Z" fill="black"/>
<path d="M28.5702 109.59H25.7632V112.397H28.5702V109.59Z" fill="black"/>
<path d="M42.6054 109.59H39.7983V112.397H42.6054V109.59Z" fill="black"/>
<path d="M45.4122 109.59H42.6052V112.397H45.4122V109.59Z" fill="black"/>
<path d="M48.2194 109.59H45.4124V112.397H48.2194V109.59Z" fill="black"/>
<path d="M51.0263 109.59H48.2192V112.397H51.0263V109.59Z" fill="black"/>
<path d="M53.8334 109.59H51.0264V112.397H53.8334V109.59Z" fill="black"/>
<path d="M59.4474 109.59H56.6404V112.397H59.4474V109.59Z" fill="black"/>
<path d="M65.0614 109.59H62.2544V112.397H65.0614V109.59Z" fill="black"/>
<path d="M70.6754 109.59H67.8684V112.397H70.6754V109.59Z" fill="black"/>
<path d="M81.9035 109.59H79.0964V112.397H81.9035V109.59Z" fill="black"/>
<path d="M84.7106 109.59H81.9036V112.397H84.7106V109.59Z" fill="black"/>
<path d="M87.5175 109.59H84.7104V112.397H87.5175V109.59Z" fill="black"/>
<path d="M90.3246 109.59H87.5176V112.397H90.3246V109.59Z" fill="black"/>
<path d="M93.1315 109.59H90.3245V112.397H93.1315V109.59Z" fill="black"/>
<path d="M101.553 109.59H98.7456V112.397H101.553V109.59Z" fill="black"/>
<path d="M109.974 109.59H107.167V112.397H109.974V109.59Z" fill="black"/>
<path d="M112.781 109.59H109.974V112.397H112.781V109.59Z" fill="black"/>
<path d="M118.395 109.59H115.588V112.397H118.395V109.59Z" fill="black"/>
<path d="M121.202 109.59H118.395V112.397H121.202V109.59Z" fill="black"/>
<path d="M124.009 109.59H121.202V112.397H124.009V109.59Z" fill="black"/>
<path d="M126.816 109.59H124.009V112.397H126.816V109.59Z" fill="black"/>
<path d="M129.623 109.59H126.816V112.397H129.623V109.59Z" fill="black"/>
<path d="M135.237 109.59H132.43V112.397H135.237V109.59Z" fill="black"/>
<path d="M138.044 109.59H135.237V112.397H138.044V109.59Z" fill="black"/>
<path d="M140.851 109.59H138.044V112.397H140.851V109.59Z" fill="black"/>
<path d="M143.658 109.59H140.851V112.397H143.658V109.59Z" fill="black"/>
<path d="M152.079 109.59H149.272V112.397H152.079V109.59Z" fill="black"/>
<path d="M154.886 109.59H152.079V112.397H154.886V109.59Z" fill="black"/>
<path d="M8.92103 112.396H6.11401V115.204H8.92103V112.396Z" fill="black"/>
<path d="M17.3422 112.396H14.5352V115.204H17.3422V112.396Z" fill="black"/>
<path d="M20.1491 112.396H17.342V115.204H20.1491V112.396Z" fill="black"/>
<path d="M25.7631 112.396H22.9561V115.204H25.7631V112.396Z" fill="black"/>
<path d="M28.5702 112.396H25.7632V115.204H28.5702V112.396Z" fill="black"/>
<path d="M34.1842 112.396H31.3772V115.204H34.1842V112.396Z" fill="black"/>
<path d="M42.6054 112.396H39.7983V115.204H42.6054V112.396Z" fill="black"/>
<path d="M45.4122 112.396H42.6052V115.204H45.4122V112.396Z" fill="black"/>
<path d="M56.6403 112.396H53.8333V115.204H56.6403V112.396Z" fill="black"/>
<path d="M67.8683 112.396H65.0613V115.204H67.8683V112.396Z" fill="black"/>
<path d="M76.2894 112.396H73.4824V115.204H76.2894V112.396Z" fill="black"/>
<path d="M79.0966 112.396H76.2896V115.204H79.0966V112.396Z" fill="black"/>
<path d="M87.5175 112.396H84.7104V115.204H87.5175V112.396Z" fill="black"/>
<path d="M90.3246 112.396H87.5176V115.204H90.3246V112.396Z" fill="black"/>
<path d="M93.1315 112.396H90.3245V115.204H93.1315V112.396Z" fill="black"/>
<path d="M95.9386 112.396H93.1316V115.204H95.9386V112.396Z" fill="black"/>
<path d="M101.553 112.396H98.7456V115.204H101.553V112.396Z" fill="black"/>
<path d="M104.36 112.396H101.553V115.204H104.36V112.396Z" fill="black"/>
<path d="M107.167 112.396H104.36V115.204H107.167V112.396Z" fill="black"/>
<path d="M115.588 112.396H112.781V115.204H115.588V112.396Z" fill="black"/>
<path d="M118.395 112.396H115.588V115.204H118.395V112.396Z" fill="black"/>
<path d="M121.202 112.396H118.395V115.204H121.202V112.396Z" fill="black"/>
<path d="M132.43 112.396H129.623V115.204H132.43V112.396Z" fill="black"/>
<path d="M143.658 112.396H140.851V115.204H143.658V112.396Z" fill="black"/>
<path d="M146.465 112.396H143.658V115.204H146.465V112.396Z" fill="black"/>
<path d="M20.1491 115.204H17.342V118.011H20.1491V115.204Z" fill="black"/>
<path d="M28.5702 115.204H25.7632V118.011H28.5702V115.204Z" fill="black"/>
<path d="M31.3771 115.204H28.5701V118.011H31.3771V115.204Z" fill="black"/>
<path d="M45.4122 115.204H42.6052V118.011H45.4122V115.204Z" fill="black"/>
<path d="M48.2194 115.204H45.4124V118.011H48.2194V115.204Z" fill="black"/>
<path d="M51.0263 115.204H48.2192V118.011H51.0263V115.204Z" fill="black"/>
<path d="M53.8334 115.204H51.0264V118.011H53.8334V115.204Z" fill="black"/>
<path d="M56.6403 115.204H53.8333V118.011H56.6403V115.204Z" fill="black"/>
<path d="M62.2543 115.204H59.4473V118.011H62.2543V115.204Z" fill="black"/>
<path d="M67.8683 115.204H65.0613V118.011H67.8683V115.204Z" fill="black"/>
<path d="M70.6754 115.204H67.8684V118.011H70.6754V115.204Z" fill="black"/>
<path d="M73.4823 115.204H70.6753V118.011H73.4823V115.204Z" fill="black"/>
<path d="M79.0966 115.204H76.2896V118.011H79.0966V115.204Z" fill="black"/>
<path d="M81.9035 115.204H79.0964V118.011H81.9035V115.204Z" fill="black"/>
<path d="M90.3246 115.204H87.5176V118.011H90.3246V115.204Z" fill="black"/>
<path d="M101.553 115.204H98.7456V118.011H101.553V115.204Z" fill="black"/>
<path d="M109.974 115.204H107.167V118.011H109.974V115.204Z" fill="black"/>
<path d="M118.395 115.204H115.588V118.011H118.395V115.204Z" fill="black"/>
<path d="M121.202 115.204H118.395V118.011H121.202V115.204Z" fill="black"/>
<path d="M124.009 115.204H121.202V118.011H124.009V115.204Z" fill="black"/>
<path d="M129.623 115.204H126.816V118.011H129.623V115.204Z" fill="black"/>
<path d="M135.237 115.204H132.43V118.011H135.237V115.204Z" fill="black"/>
<path d="M140.851 115.204H138.044V118.011H140.851V115.204Z" fill="black"/>
<path d="M146.465 115.204H143.658V118.011H146.465V115.204Z" fill="black"/>
<path d="M152.079 115.204H149.272V118.011H152.079V115.204Z" fill="black"/>
<path d="M154.886 115.204H152.079V118.011H154.886V115.204Z" fill="black"/>
<path d="M17.3422 118.011H14.5352V120.818H17.3422V118.011Z" fill="black"/>
<path d="M25.7631 118.011H22.9561V120.818H25.7631V118.011Z" fill="black"/>
<path d="M34.1842 118.011H31.3772V120.818H34.1842V118.011Z" fill="black"/>
<path d="M36.9911 118.011H34.1841V120.818H36.9911V118.011Z" fill="black"/>
<path d="M39.7982 118.011H36.9912V120.818H39.7982V118.011Z" fill="black"/>
<path d="M42.6054 118.011H39.7983V120.818H42.6054V118.011Z" fill="black"/>
<path d="M45.4122 118.011H42.6052V120.818H45.4122V118.011Z" fill="black"/>
<path d="M51.0263 118.011H48.2192V120.818H51.0263V118.011Z" fill="black"/>
<path d="M59.4474 118.011H56.6404V120.818H59.4474V118.011Z" fill="black"/>
<path d="M62.2543 118.011H59.4473V120.818H62.2543V118.011Z" fill="black"/>
<path d="M73.4823 118.011H70.6753V120.818H73.4823V118.011Z" fill="black"/>
<path d="M76.2894 118.011H73.4824V120.818H76.2894V118.011Z" fill="black"/>
<path d="M84.7106 118.011H81.9036V120.818H84.7106V118.011Z" fill="black"/>
<path d="M87.5175 118.011H84.7104V120.818H87.5175V118.011Z" fill="black"/>
<path d="M93.1315 118.011H90.3245V120.818H93.1315V118.011Z" fill="black"/>
<path d="M104.36 118.011H101.553V120.818H104.36V118.011Z" fill="black"/>
<path d="M107.167 118.011H104.36V120.818H107.167V118.011Z" fill="black"/>
<path d="M109.974 118.011H107.167V120.818H109.974V118.011Z" fill="black"/>
<path d="M115.588 118.011H112.781V120.818H115.588V118.011Z" fill="black"/>
<path d="M124.009 118.011H121.202V120.818H124.009V118.011Z" fill="black"/>
<path d="M138.044 118.011H135.237V120.818H138.044V118.011Z" fill="black"/>
<path d="M140.851 118.011H138.044V120.818H140.851V118.011Z" fill="black"/>
<path d="M149.272 118.011H146.465V120.818H149.272V118.011Z" fill="black"/>
<path d="M152.079 118.011H149.272V120.818H152.079V118.011Z" fill="black"/>
<path d="M154.886 118.011H152.079V120.818H154.886V118.011Z" fill="black"/>
<path d="M8.92103 120.818H6.11401V123.625H8.92103V120.818Z" fill="black"/>
<path d="M14.535 120.818H11.728V123.625H14.535V120.818Z" fill="black"/>
<path d="M20.1491 120.818H17.342V123.625H20.1491V120.818Z" fill="black"/>
<path d="M28.5702 120.818H25.7632V123.625H28.5702V120.818Z" fill="black"/>
<path d="M31.3771 120.818H28.5701V123.625H31.3771V120.818Z" fill="black"/>
<path d="M39.7982 120.818H36.9912V123.625H39.7982V120.818Z" fill="black"/>
<path d="M45.4122 120.818H42.6052V123.625H45.4122V120.818Z" fill="black"/>
<path d="M48.2194 120.818H45.4124V123.625H48.2194V120.818Z" fill="black"/>
<path d="M56.6403 120.818H53.8333V123.625H56.6403V120.818Z" fill="black"/>
<path d="M59.4474 120.818H56.6404V123.625H59.4474V120.818Z" fill="black"/>
<path d="M62.2543 120.818H59.4473V123.625H62.2543V120.818Z" fill="black"/>
<path d="M67.8683 120.818H65.0613V123.625H67.8683V120.818Z" fill="black"/>
<path d="M73.4823 120.818H70.6753V123.625H73.4823V120.818Z" fill="black"/>
<path d="M81.9035 120.818H79.0964V123.625H81.9035V120.818Z" fill="black"/>
<path d="M84.7106 120.818H81.9036V123.625H84.7106V120.818Z" fill="black"/>
<path d="M87.5175 120.818H84.7104V123.625H87.5175V120.818Z" fill="black"/>
<path d="M93.1315 120.818H90.3245V123.625H93.1315V120.818Z" fill="black"/>
<path d="M95.9386 120.818H93.1316V123.625H95.9386V120.818Z" fill="black"/>
<path d="M98.7455 120.818H95.9385V123.625H98.7455V120.818Z" fill="black"/>
<path d="M101.553 120.818H98.7456V123.625H101.553V120.818Z" fill="black"/>
<path d="M107.167 120.818H104.36V123.625H107.167V120.818Z" fill="black"/>
<path d="M109.974 120.818H107.167V123.625H109.974V120.818Z" fill="black"/>
<path d="M124.009 120.818H121.202V123.625H124.009V120.818Z" fill="black"/>
<path d="M126.816 120.818H124.009V123.625H126.816V120.818Z" fill="black"/>
<path d="M129.623 120.818H126.816V123.625H129.623V120.818Z" fill="black"/>
<path d="M132.43 120.818H129.623V123.625H132.43V120.818Z" fill="black"/>
<path d="M138.044 120.818H135.237V123.625H138.044V120.818Z" fill="black"/>
<path d="M140.851 120.818H138.044V123.625H140.851V120.818Z" fill="black"/>
<path d="M143.658 120.818H140.851V123.625H143.658V120.818Z" fill="black"/>
<path d="M146.465 120.818H143.658V123.625H146.465V120.818Z" fill="black"/>
<path d="M154.886 120.818H152.079V123.625H154.886V120.818Z" fill="black"/>
<path d="M8.92103 123.625H6.11401V126.432H8.92103V123.625Z" fill="black"/>
<path d="M11.7282 123.625H8.92114V126.432H11.7282V123.625Z" fill="black"/>
<path d="M17.3422 123.625H14.5352V126.432H17.3422V123.625Z" fill="black"/>
<path d="M20.1491 123.625H17.342V126.432H20.1491V123.625Z" fill="black"/>
<path d="M22.9562 123.625H20.1492V126.432H22.9562V123.625Z" fill="black"/>
<path d="M25.7631 123.625H22.9561V126.432H25.7631V123.625Z" fill="black"/>
<path d="M28.5702 123.625H25.7632V126.432H28.5702V123.625Z" fill="black"/>
<path d="M31.3771 123.625H28.5701V126.432H31.3771V123.625Z" fill="black"/>
<path d="M34.1842 123.625H31.3772V126.432H34.1842V123.625Z" fill="black"/>
<path d="M39.7982 123.625H36.9912V126.432H39.7982V123.625Z" fill="black"/>
<path d="M51.0263 123.625H48.2192V126.432H51.0263V123.625Z" fill="black"/>
<path d="M53.8334 123.625H51.0264V126.432H53.8334V123.625Z" fill="black"/>
<path d="M56.6403 123.625H53.8333V126.432H56.6403V123.625Z" fill="black"/>
<path d="M59.4474 123.625H56.6404V126.432H59.4474V123.625Z" fill="black"/>
<path d="M62.2543 123.625H59.4473V126.432H62.2543V123.625Z" fill="black"/>
<path d="M79.0966 123.625H76.2896V126.432H79.0966V123.625Z" fill="black"/>
<path d="M84.7106 123.625H81.9036V126.432H84.7106V123.625Z" fill="black"/>
<path d="M87.5175 123.625H84.7104V126.432H87.5175V123.625Z" fill="black"/>
<path d="M90.3246 123.625H87.5176V126.432H90.3246V123.625Z" fill="black"/>
<path d="M101.553 123.625H98.7456V126.432H101.553V123.625Z" fill="black"/>
<path d="M104.36 123.625H101.553V126.432H104.36V123.625Z" fill="black"/>
<path d="M112.781 123.625H109.974V126.432H112.781V123.625Z" fill="black"/>
<path d="M115.588 123.625H112.781V126.432H115.588V123.625Z" fill="black"/>
<path d="M124.009 123.625H121.202V126.432H124.009V123.625Z" fill="black"/>
<path d="M129.623 123.625H126.816V126.432H129.623V123.625Z" fill="black"/>
<path d="M146.465 123.625H143.658V126.432H146.465V123.625Z" fill="black"/>
<path d="M11.7282 126.432H8.92114V129.239H11.7282V126.432Z" fill="black"/>
<path d="M14.535 126.432H11.728V129.239H14.535V126.432Z" fill="black"/>
<path d="M28.5702 126.432H25.7632V129.239H28.5702V126.432Z" fill="black"/>
<path d="M31.3771 126.432H28.5701V129.239H31.3771V126.432Z" fill="black"/>
<path d="M36.9911 126.432H34.1841V129.239H36.9911V126.432Z" fill="black"/>
<path d="M51.0263 126.432H48.2192V129.239H51.0263V126.432Z" fill="black"/>
<path d="M59.4474 126.432H56.6404V129.239H59.4474V126.432Z" fill="black"/>
<path d="M62.2543 126.432H59.4473V129.239H62.2543V126.432Z" fill="black"/>
<path d="M65.0614 126.432H62.2544V129.239H65.0614V126.432Z" fill="black"/>
<path d="M67.8683 126.432H65.0613V129.239H67.8683V126.432Z" fill="black"/>
<path d="M70.6754 126.432H67.8684V129.239H70.6754V126.432Z" fill="black"/>
<path d="M73.4823 126.432H70.6753V129.239H73.4823V126.432Z" fill="black"/>
<path d="M76.2894 126.432H73.4824V129.239H76.2894V126.432Z" fill="black"/>
<path d="M79.0966 126.432H76.2896V129.239H79.0966V126.432Z" fill="black"/>
<path d="M90.3246 126.432H87.5176V129.239H90.3246V126.432Z" fill="black"/>
<path d="M95.9386 126.432H93.1316V129.239H95.9386V126.432Z" fill="black"/>
<path d="M98.7455 126.432H95.9385V129.239H98.7455V126.432Z" fill="black"/>
<path d="M104.36 126.432H101.553V129.239H104.36V126.432Z" fill="black"/>
<path d="M118.395 126.432H115.588V129.239H118.395V126.432Z" fill="black"/>
<path d="M121.202 126.432H118.395V129.239H121.202V126.432Z" fill="black"/>
<path d="M126.816 126.432H124.009V129.239H126.816V126.432Z" fill="black"/>
<path d="M132.43 126.432H129.623V129.239H132.43V126.432Z" fill="black"/>
<path d="M138.044 126.432H135.237V129.239H138.044V126.432Z" fill="black"/>
<path d="M140.851 126.432H138.044V129.239H140.851V126.432Z" fill="black"/>
<path d="M152.079 126.432H149.272V129.239H152.079V126.432Z" fill="black"/>
<path d="M154.886 126.432H152.079V129.239H154.886V126.432Z" fill="black"/>
<path d="M17.3422 129.239H14.5352V132.046H17.3422V129.239Z" fill="black"/>
<path d="M25.7631 129.239H22.9561V132.046H25.7631V129.239Z" fill="black"/>
<path d="M28.5702 129.239H25.7632V132.046H28.5702V129.239Z" fill="black"/>
<path d="M31.3771 129.239H28.5701V132.046H31.3771V129.239Z" fill="black"/>
<path d="M42.6054 129.239H39.7983V132.046H42.6054V129.239Z" fill="black"/>
<path d="M45.4122 129.239H42.6052V132.046H45.4122V129.239Z" fill="black"/>
<path d="M48.2194 129.239H45.4124V132.046H48.2194V129.239Z" fill="black"/>
<path d="M65.0614 129.239H62.2544V132.046H65.0614V129.239Z" fill="black"/>
<path d="M76.2894 129.239H73.4824V132.046H76.2894V129.239Z" fill="black"/>
<path d="M79.0966 129.239H76.2896V132.046H79.0966V129.239Z" fill="black"/>
<path d="M81.9035 129.239H79.0964V132.046H81.9035V129.239Z" fill="black"/>
<path d="M84.7106 129.239H81.9036V132.046H84.7106V129.239Z" fill="black"/>
<path d="M87.5175 129.239H84.7104V132.046H87.5175V129.239Z" fill="black"/>
<path d="M90.3246 129.239H87.5176V132.046H90.3246V129.239Z" fill="black"/>
<path d="M93.1315 129.239H90.3245V132.046H93.1315V129.239Z" fill="black"/>
<path d="M104.36 129.239H101.553V132.046H104.36V129.239Z" fill="black"/>
<path d="M109.974 129.239H107.167V132.046H109.974V129.239Z" fill="black"/>
<path d="M112.781 129.239H109.974V132.046H112.781V129.239Z" fill="black"/>
<path d="M115.588 129.239H112.781V132.046H115.588V129.239Z" fill="black"/>
<path d="M132.43 129.239H129.623V132.046H132.43V129.239Z" fill="black"/>
<path d="M135.237 129.239H132.43V132.046H135.237V129.239Z" fill="black"/>
<path d="M138.044 129.239H135.237V132.046H138.044V129.239Z" fill="black"/>
<path d="M140.851 129.239H138.044V132.046H140.851V129.239Z" fill="black"/>
<path d="M143.658 129.239H140.851V132.046H143.658V129.239Z" fill="black"/>
<path d="M149.272 129.239H146.465V132.046H149.272V129.239Z" fill="black"/>
<path d="M154.886 129.239H152.079V132.046H154.886V129.239Z" fill="black"/>
<path d="M31.3771 132.046H28.5701V134.853H31.3771V132.046Z" fill="black"/>
<path d="M36.9911 132.046H34.1841V134.853H36.9911V132.046Z" fill="black"/>
<path d="M42.6054 132.046H39.7983V134.853H42.6054V132.046Z" fill="black"/>
<path d="M48.2194 132.046H45.4124V134.853H48.2194V132.046Z" fill="black"/>
<path d="M51.0263 132.046H48.2192V134.853H51.0263V132.046Z" fill="black"/>
<path d="M53.8334 132.046H51.0264V134.853H53.8334V132.046Z" fill="black"/>
<path d="M62.2543 132.046H59.4473V134.853H62.2543V132.046Z" fill="black"/>
<path d="M65.0614 132.046H62.2544V134.853H65.0614V132.046Z" fill="black"/>
<path d="M67.8683 132.046H65.0613V134.853H67.8683V132.046Z" fill="black"/>
<path d="M70.6754 132.046H67.8684V134.853H70.6754V132.046Z" fill="black"/>
<path d="M73.4823 132.046H70.6753V134.853H73.4823V132.046Z" fill="black"/>
<path d="M76.2894 132.046H73.4824V134.853H76.2894V132.046Z" fill="black"/>
<path d="M87.5175 132.046H84.7104V134.853H87.5175V132.046Z" fill="black"/>
<path d="M90.3246 132.046H87.5176V134.853H90.3246V132.046Z" fill="black"/>
<path d="M93.1315 132.046H90.3245V134.853H93.1315V132.046Z" fill="black"/>
<path d="M98.7455 132.046H95.9385V134.853H98.7455V132.046Z" fill="black"/>
<path d="M107.167 132.046H104.36V134.853H107.167V132.046Z" fill="black"/>
<path d="M109.974 132.046H107.167V134.853H109.974V132.046Z" fill="black"/>
<path d="M112.781 132.046H109.974V134.853H112.781V132.046Z" fill="black"/>
<path d="M121.202 132.046H118.395V134.853H121.202V132.046Z" fill="black"/>
<path d="M124.009 132.046H121.202V134.853H124.009V132.046Z" fill="black"/>
<path d="M126.816 132.046H124.009V134.853H126.816V132.046Z" fill="black"/>
<path d="M132.43 132.046H129.623V134.853H132.43V132.046Z" fill="black"/>
<path d="M143.658 132.046H140.851V134.853H143.658V132.046Z" fill="black"/>
<path d="M146.465 132.046H143.658V134.853H146.465V132.046Z" fill="black"/>
<path d="M152.079 132.046H149.272V134.853H152.079V132.046Z" fill="black"/>
<path d="M45.4122 134.853H42.6052V137.66H45.4122V134.853Z" fill="black"/>
<path d="M48.2194 134.853H45.4124V137.66H48.2194V134.853Z" fill="black"/>
<path d="M51.0263 134.853H48.2192V137.66H51.0263V134.853Z" fill="black"/>
<path d="M53.8334 134.853H51.0264V137.66H53.8334V134.853Z" fill="black"/>
<path d="M56.6403 134.853H53.8333V137.66H56.6403V134.853Z" fill="black"/>
<path d="M65.0614 134.853H62.2544V137.66H65.0614V134.853Z" fill="black"/>
<path d="M76.2894 134.853H73.4824V137.66H76.2894V134.853Z" fill="black"/>
<path d="M81.9035 134.853H79.0964V137.66H81.9035V134.853Z" fill="black"/>
<path d="M87.5175 134.853H84.7104V137.66H87.5175V134.853Z" fill="black"/>
<path d="M93.1315 134.853H90.3245V137.66H93.1315V134.853Z" fill="black"/>
<path d="M95.9386 134.853H93.1316V137.66H95.9386V134.853Z" fill="black"/>
<path d="M98.7455 134.853H95.9385V137.66H98.7455V134.853Z" fill="black"/>
<path d="M104.36 134.853H101.553V137.66H104.36V134.853Z" fill="black"/>
<path d="M118.395 134.853H115.588V137.66H118.395V134.853Z" fill="black"/>
<path d="M129.623 134.853H126.816V137.66H129.623V134.853Z" fill="black"/>
<path d="M132.43 134.853H129.623V137.66H132.43V134.853Z" fill="black"/>
<path d="M138.044 134.853H135.237V137.66H138.044V134.853Z" fill="black"/>
<path d="M143.658 134.853H140.851V137.66H143.658V134.853Z" fill="black"/>
<path d="M146.465 134.853H143.658V137.66H146.465V134.853Z" fill="black"/>
<path d="M149.272 134.853H146.465V137.66H149.272V134.853Z" fill="black"/>
<path d="M31.3771 137.66H28.5701V140.467H31.3771V137.66Z" fill="black"/>
<path d="M36.9911 137.66H34.1841V140.467H36.9911V137.66Z" fill="black"/>
<path d="M39.7982 137.66H36.9912V140.467H39.7982V137.66Z" fill="black"/>
<path d="M42.6054 137.66H39.7983V140.467H42.6054V137.66Z" fill="black"/>
<path d="M51.0263 137.66H48.2192V140.467H51.0263V137.66Z" fill="black"/>
<path d="M56.6403 137.66H53.8333V140.467H56.6403V137.66Z" fill="black"/>
<path d="M62.2543 137.66H59.4473V140.467H62.2543V137.66Z" fill="black"/>
<path d="M67.8683 137.66H65.0613V140.467H67.8683V137.66Z" fill="black"/>
<path d="M73.4823 137.66H70.6753V140.467H73.4823V137.66Z" fill="black"/>
<path d="M76.2894 137.66H73.4824V140.467H76.2894V137.66Z" fill="black"/>
<path d="M87.5175 137.66H84.7104V140.467H87.5175V137.66Z" fill="black"/>
<path d="M90.3246 137.66H87.5176V140.467H90.3246V137.66Z" fill="black"/>
<path d="M93.1315 137.66H90.3245V140.467H93.1315V137.66Z" fill="black"/>
<path d="M95.9386 137.66H93.1316V140.467H95.9386V137.66Z" fill="black"/>
<path d="M98.7455 137.66H95.9385V140.467H98.7455V137.66Z" fill="black"/>
<path d="M101.553 137.66H98.7456V140.467H101.553V137.66Z" fill="black"/>
<path d="M104.36 137.66H101.553V140.467H104.36V137.66Z" fill="black"/>
<path d="M118.395 137.66H115.588V140.467H118.395V137.66Z" fill="black"/>
<path d="M121.202 137.66H118.395V140.467H121.202V137.66Z" fill="black"/>
<path d="M124.009 137.66H121.202V140.467H124.009V137.66Z" fill="black"/>
<path d="M126.816 137.66H124.009V140.467H126.816V137.66Z" fill="black"/>
<path d="M129.623 137.66H126.816V140.467H129.623V137.66Z" fill="black"/>
<path d="M132.43 137.66H129.623V140.467H132.43V137.66Z" fill="black"/>
<path d="M143.658 137.66H140.851V140.467H143.658V137.66Z" fill="black"/>
<path d="M146.465 137.66H143.658V140.467H146.465V137.66Z" fill="black"/>
<path d="M154.886 137.66H152.079V140.467H154.886V137.66Z" fill="black"/>
<path d="M31.3771 140.467H28.5701V143.274H31.3771V140.467Z" fill="black"/>
<path d="M45.4122 140.467H42.6052V143.274H45.4122V140.467Z" fill="black"/>
<path d="M51.0263 140.467H48.2192V143.274H51.0263V140.467Z" fill="black"/>
<path d="M53.8334 140.467H51.0264V143.274H53.8334V140.467Z" fill="black"/>
<path d="M59.4474 140.467H56.6404V143.274H59.4474V140.467Z" fill="black"/>
<path d="M62.2543 140.467H59.4473V143.274H62.2543V140.467Z" fill="black"/>
<path d="M65.0614 140.467H62.2544V143.274H65.0614V140.467Z" fill="black"/>
<path d="M67.8683 140.467H65.0613V143.274H67.8683V140.467Z" fill="black"/>
<path d="M76.2894 140.467H73.4824V143.274H76.2894V140.467Z" fill="black"/>
<path d="M79.0966 140.467H76.2896V143.274H79.0966V140.467Z" fill="black"/>
<path d="M81.9035 140.467H79.0964V143.274H81.9035V140.467Z" fill="black"/>
<path d="M84.7106 140.467H81.9036V143.274H84.7106V140.467Z" fill="black"/>
<path d="M87.5175 140.467H84.7104V143.274H87.5175V140.467Z" fill="black"/>
<path d="M93.1315 140.467H90.3245V143.274H93.1315V140.467Z" fill="black"/>
<path d="M104.36 140.467H101.553V143.274H104.36V140.467Z" fill="black"/>
<path d="M107.167 140.467H104.36V143.274H107.167V140.467Z" fill="black"/>
<path d="M109.974 140.467H107.167V143.274H109.974V140.467Z" fill="black"/>
<path d="M112.781 140.467H109.974V143.274H112.781V140.467Z" fill="black"/>
<path d="M118.395 140.467H115.588V143.274H118.395V140.467Z" fill="black"/>
<path d="M126.816 140.467H124.009V143.274H126.816V140.467Z" fill="black"/>
<path d="M132.43 140.467H129.623V143.274H132.43V140.467Z" fill="black"/>
<path d="M135.237 140.467H132.43V143.274H135.237V140.467Z" fill="black"/>
<path d="M138.044 140.467H135.237V143.274H138.044V140.467Z" fill="black"/>
<path d="M140.851 140.467H138.044V143.274H140.851V140.467Z" fill="black"/>
<path d="M143.658 140.467H140.851V143.274H143.658V140.467Z" fill="black"/>
<path d="M152.079 140.467H149.272V143.274H152.079V140.467Z" fill="black"/>
<path d="M154.886 140.467H152.079V143.274H154.886V140.467Z" fill="black"/>
<path d="M31.3771 143.274H28.5701V146.081H31.3771V143.274Z" fill="black"/>
<path d="M36.9911 143.274H34.1841V146.081H36.9911V143.274Z" fill="black"/>
<path d="M42.6054 143.274H39.7983V146.081H42.6054V143.274Z" fill="black"/>
<path d="M45.4122 143.274H42.6052V146.081H45.4122V143.274Z" fill="black"/>
<path d="M53.8334 143.274H51.0264V146.081H53.8334V143.274Z" fill="black"/>
<path d="M56.6403 143.274H53.8333V146.081H56.6403V143.274Z" fill="black"/>
<path d="M59.4474 143.274H56.6404V146.081H59.4474V143.274Z" fill="black"/>
<path d="M62.2543 143.274H59.4473V146.081H62.2543V143.274Z" fill="black"/>
<path d="M67.8683 143.274H65.0613V146.081H67.8683V143.274Z" fill="black"/>
<path d="M79.0966 143.274H76.2896V146.081H79.0966V143.274Z" fill="black"/>
<path d="M84.7106 143.274H81.9036V146.081H84.7106V143.274Z" fill="black"/>
<path d="M90.3246 143.274H87.5176V146.081H90.3246V143.274Z" fill="black"/>
<path d="M93.1315 143.274H90.3245V146.081H93.1315V143.274Z" fill="black"/>
<path d="M107.167 143.274H104.36V146.081H107.167V143.274Z" fill="black"/>
<path d="M112.781 143.274H109.974V146.081H112.781V143.274Z" fill="black"/>
<path d="M126.816 143.274H124.009V146.081H126.816V143.274Z" fill="black"/>
<path d="M132.43 143.274H129.623V146.081H132.43V143.274Z" fill="black"/>
<path d="M138.044 143.274H135.237V146.081H138.044V143.274Z" fill="black"/>
<path d="M154.886 143.274H152.079V146.081H154.886V143.274Z" fill="black"/>
<path d="M31.3771 146.081H28.5701V148.888H31.3771V146.081Z" fill="black"/>
<path d="M36.9911 146.081H34.1841V148.888H36.9911V146.081Z" fill="black"/>
<path d="M39.7982 146.081H36.9912V148.888H39.7982V146.081Z" fill="black"/>
<path d="M45.4122 146.081H42.6052V148.888H45.4122V146.081Z" fill="black"/>
<path d="M48.2194 146.081H45.4124V148.888H48.2194V146.081Z" fill="black"/>
<path d="M53.8334 146.081H51.0264V148.888H53.8334V146.081Z" fill="black"/>
<path d="M59.4474 146.081H56.6404V148.888H59.4474V146.081Z" fill="black"/>
<path d="M62.2543 146.081H59.4473V148.888H62.2543V146.081Z" fill="black"/>
<path d="M65.0614 146.081H62.2544V148.888H65.0614V146.081Z" fill="black"/>
<path d="M79.0966 146.081H76.2896V148.888H79.0966V146.081Z" fill="black"/>
<path d="M84.7106 146.081H81.9036V148.888H84.7106V146.081Z" fill="black"/>
<path d="M93.1315 146.081H90.3245V148.888H93.1315V146.081Z" fill="black"/>
<path d="M107.167 146.081H104.36V148.888H107.167V146.081Z" fill="black"/>
<path d="M109.974 146.081H107.167V148.888H109.974V146.081Z" fill="black"/>
<path d="M115.588 146.081H112.781V148.888H115.588V146.081Z" fill="black"/>
<path d="M121.202 146.081H118.395V148.888H121.202V146.081Z" fill="black"/>
<path d="M126.816 146.081H124.009V148.888H126.816V146.081Z" fill="black"/>
<path d="M129.623 146.081H126.816V148.888H129.623V146.081Z" fill="black"/>
<path d="M135.237 146.081H132.43V148.888H135.237V146.081Z" fill="black"/>
<path d="M140.851 146.081H138.044V148.888H140.851V146.081Z" fill="black"/>
<path d="M143.658 146.081H140.851V148.888H143.658V146.081Z" fill="black"/>
<path d="M146.465 146.081H143.658V148.888H146.465V146.081Z" fill="black"/>
<path d="M152.079 146.081H149.272V148.888H152.079V146.081Z" fill="black"/>
<path d="M154.886 146.081H152.079V148.888H154.886V146.081Z" fill="black"/>
<path d="M34.1842 148.888H31.3772V151.695H34.1842V148.888Z" fill="black"/>
<path d="M39.7982 148.888H36.9912V151.695H39.7982V148.888Z" fill="black"/>
<path d="M42.6054 148.888H39.7983V151.695H42.6054V148.888Z" fill="black"/>
<path d="M48.2194 148.888H45.4124V151.695H48.2194V148.888Z" fill="black"/>
<path d="M56.6403 148.888H53.8333V151.695H56.6403V148.888Z" fill="black"/>
<path d="M59.4474 148.888H56.6404V151.695H59.4474V148.888Z" fill="black"/>
<path d="M65.0614 148.888H62.2544V151.695H65.0614V148.888Z" fill="black"/>
<path d="M67.8683 148.888H65.0613V151.695H67.8683V148.888Z" fill="black"/>
<path d="M73.4823 148.888H70.6753V151.695H73.4823V148.888Z" fill="black"/>
<path d="M76.2894 148.888H73.4824V151.695H76.2894V148.888Z" fill="black"/>
<path d="M79.0966 148.888H76.2896V151.695H79.0966V148.888Z" fill="black"/>
<path d="M84.7106 148.888H81.9036V151.695H84.7106V148.888Z" fill="black"/>
<path d="M98.7455 148.888H95.9385V151.695H98.7455V148.888Z" fill="black"/>
<path d="M104.36 148.888H101.553V151.695H104.36V148.888Z" fill="black"/>
<path d="M109.974 148.888H107.167V151.695H109.974V148.888Z" fill="black"/>
<path d="M112.781 148.888H109.974V151.695H112.781V148.888Z" fill="black"/>
<path d="M118.395 148.888H115.588V151.695H118.395V148.888Z" fill="black"/>
<path d="M121.202 148.888H118.395V151.695H121.202V148.888Z" fill="black"/>
<path d="M126.816 148.888H124.009V151.695H126.816V148.888Z" fill="black"/>
<path d="M140.851 148.888H138.044V151.695H140.851V148.888Z" fill="black"/>
<path d="M143.658 148.888H140.851V151.695H143.658V148.888Z" fill="black"/>
<path d="M146.465 148.888H143.658V151.695H146.465V148.888Z" fill="black"/>
<path d="M152.079 148.888H149.272V151.695H152.079V148.888Z" fill="black"/>
<path d="M31.3771 151.695H28.5701V154.502H31.3771V151.695Z" fill="black"/>
<path d="M39.7982 151.695H36.9912V154.502H39.7982V151.695Z" fill="black"/>
<path d="M48.2194 151.695H45.4124V154.502H48.2194V151.695Z" fill="black"/>
<path d="M53.8334 151.695H51.0264V154.502H53.8334V151.695Z" fill="black"/>
<path d="M59.4474 151.695H56.6404V154.502H59.4474V151.695Z" fill="black"/>
<path d="M67.8683 151.695H65.0613V154.502H67.8683V151.695Z" fill="black"/>
<path d="M73.4823 151.695H70.6753V154.502H73.4823V151.695Z" fill="black"/>
<path d="M76.2894 151.695H73.4824V154.502H76.2894V151.695Z" fill="black"/>
<path d="M95.9386 151.695H93.1316V154.502H95.9386V151.695Z" fill="black"/>
<path d="M101.553 151.695H98.7456V154.502H101.553V151.695Z" fill="black"/>
<path d="M104.36 151.695H101.553V154.502H104.36V151.695Z" fill="black"/>
<path d="M107.167 151.695H104.36V154.502H107.167V151.695Z" fill="black"/>
<path d="M109.974 151.695H107.167V154.502H109.974V151.695Z" fill="black"/>
<path d="M112.781 151.695H109.974V154.502H112.781V151.695Z" fill="black"/>
<path d="M118.395 151.695H115.588V154.502H118.395V151.695Z" fill="black"/>
<path d="M121.202 151.695H118.395V154.502H121.202V151.695Z" fill="black"/>
<path d="M124.009 151.695H121.202V154.502H124.009V151.695Z" fill="black"/>
<path d="M129.623 151.695H126.816V154.502H129.623V151.695Z" fill="black"/>
<path d="M132.43 151.695H129.623V154.502H132.43V151.695Z" fill="black"/>
<path d="M135.237 151.695H132.43V154.502H135.237V151.695Z" fill="black"/>
<path d="M138.044 151.695H135.237V154.502H138.044V151.695Z" fill="black"/>
<path d="M143.658 151.695H140.851V154.502H143.658V151.695Z" fill="black"/>
<path d="M149.272 151.695H146.465V154.502H149.272V151.695Z" fill="black"/>
<path d="M22.8158 5.72998H9.06138H6.11401V8.67735V22.4317V25.3791H9.06138H22.8158H25.7631V22.4317V8.67735V5.72998H22.8158ZM22.8158 22.4317H9.06138V8.67735H22.8158V22.4317Z" fill="black"/>
<path d="M151.939 5.72998H138.184H135.237V8.67735V22.4317V25.3791H138.184H151.939H154.886V22.4317V8.67735V5.72998H151.939ZM151.939 22.4317H138.184V8.67735H151.939V22.4317Z" fill="black"/>
<path d="M22.8158 134.853H9.06138H6.11401V137.8V151.554V154.502H9.06138H22.8158H25.7631V151.554V137.8V134.853H22.8158ZM22.8158 151.554H9.06138V137.8H22.8158V151.554Z" fill="black"/>
<path d="M20.1491 11.3442H11.728V19.7653H20.1491V11.3442Z" fill="black"/>
<path d="M149.272 11.3442H140.851V19.7653H149.272V11.3442Z" fill="black"/>
<path d="M20.1491 140.467H11.728V148.888H20.1491V140.467Z" fill="black"/>
</g>
<defs>
<clipPath id="clip0_478_2275">
<rect width="160" height="160" fill="white" transform="translate(0.5 0.115723)"/>
</clipPath>
</defs>
</svg>
