<svg width="35" height="38" viewBox="0 0 35 38" fill="none" xmlns="http://www.w3.org/2000/svg">
<rect x="8.53491" y="17.5928" width="25.9535" height="20.093" rx="4" fill="#27AE60"/>
<path d="M27.7996 25.127L23.6135 31.8246" stroke="#292828" stroke-width="2" stroke-linecap="round" stroke-linejoin="round"/>
<path d="M28.4001 31.3634L23.1861 25.1274" stroke="#292828" stroke-width="2" stroke-linecap="round" stroke-linejoin="round"/>
<path d="M9.7907 27.639H5C2.79086 27.639 1 25.8482 1 23.639V5.68555C1 3.47641 2.79086 1.68555 5 1.68555H15.4186C17.6277 1.68555 19.4186 3.47641 19.4186 5.68555V12.9879" stroke="#27AE60" stroke-width="2"/>
<path d="M5.18604 6.70898V11.7322C5.18604 13.1194 6.31053 14.2439 7.69766 14.2439V14.2439C9.0848 14.2439 10.2093 13.1194 10.2093 11.7322V6.70898" stroke="#27AE60" stroke-width="2"/>
<path d="M13.5581 24.29V29.3133C13.5581 30.7004 14.6826 31.8249 16.0697 31.8249V31.8249C17.4569 31.8249 18.5814 30.7004 18.5814 29.3133V24.29" stroke="#292828" stroke-width="2"/>
<path d="M14.3953 7.5459L14.3953 14.2436" stroke="#27AE60" stroke-width="2" stroke-linecap="square"/>
</svg>
