<svg width="81" height="81" viewBox="0 0 81 81" fill="none" xmlns="http://www.w3.org/2000/svg">
<path d="M80.4999 39.7234V41.4418C80.1196 42.9958 79.1258 44.1258 78.0225 45.2244C67.0595 56.1608 56.1106 67.1128 45.1774 78.0773C44.0944 79.1635 42.9754 80.1291 41.4479 80.5H39.573C37.9626 80.0336 36.8342 78.9084 35.6902 77.7628C24.6005 66.6527 13.4935 55.5583 2.3928 44.4591C-0.123749 41.9441 -0.131575 38.9315 2.37715 36.4212C10.0536 28.7447 17.7316 21.0714 25.4111 13.3981C25.5864 13.2229 25.7789 13.0648 25.9072 12.949C28.8824 15.8865 31.8136 18.7677 34.7168 21.6787C34.867 21.8305 34.8529 22.2483 34.7809 22.5034C33.9765 25.3486 35.1284 28.2236 37.7106 29.6415C38.1535 29.8841 38.3382 30.1157 38.3366 30.6415C38.3163 37.5151 38.3179 44.3887 38.3335 51.2607C38.3335 51.7412 38.1895 51.9837 37.7592 52.2154C35.3115 53.5362 34.0579 56.2484 34.6385 58.8636C35.2583 61.6571 37.5917 63.604 40.4792 63.7339C43.1694 63.8544 45.6766 62.0578 46.5029 59.416C47.3324 56.7633 46.2917 53.9197 43.9019 52.4188C43.4965 52.1637 43.3478 51.9024 43.3494 51.4282C43.3635 44.6594 43.3588 37.8892 43.3619 31.1204C43.3619 30.9295 43.4011 30.7401 43.4277 30.5023C43.5654 30.5883 43.6405 30.6165 43.6922 30.6697C46.24 33.2019 48.791 35.731 51.3169 38.2867C51.4781 38.451 51.4813 38.8188 51.4781 39.0911C51.4625 40.1459 51.2074 41.2446 51.414 42.2493C52.1073 45.6219 55.3969 47.6377 58.7445 46.888C62.0248 46.1525 64.0859 42.8049 63.3081 39.473C62.5475 36.2162 59.2657 34.2192 55.9291 34.9391C55.6239 35.0048 55.1481 34.8828 54.929 34.6668C52.2372 32.0203 49.5704 29.3488 46.927 26.6554C46.7236 26.4489 46.6031 26.006 46.6641 25.7196C47.6266 21.1638 43.8627 17.3451 39.3164 18.3201C38.8359 18.4234 38.5636 18.3029 38.2412 17.9758C36.4148 16.1213 34.5649 14.2886 32.7229 12.4497C31.6775 11.4059 30.6305 10.362 29.5835 9.31813C29.6555 9.20232 29.6852 9.1272 29.7369 9.07555C32.1079 6.69672 34.446 4.28346 36.8765 1.96879C37.5056 1.36939 38.3867 0.918664 39.2303 0.685476C41.2836 0.118938 42.9691 0.898319 44.4371 2.36944C55.5816 13.5343 66.7371 24.6898 77.9066 35.8312C79.0429 36.9642 80.0961 38.1161 80.4999 39.7202V39.7234Z" fill="#27AE60"/>
</svg>
