<svg width="81" height="81" viewBox="0 0 81 81" fill="none" xmlns="http://www.w3.org/2000/svg">
<path d="M0.5 0.5V80.5H80.5V0.5H0.5ZM43.9613 63.2707C43.9573 65.2693 43.592 67.208 42.6627 69.004C41.164 71.9013 38.6667 73.384 35.548 73.94C33.5827 74.2907 31.6107 74.28 29.652 73.864C26.0773 73.1067 23.472 71.0693 21.76 67.8613C21.62 67.5987 21.388 67.336 21.8147 67.0813C23.7173 65.9427 25.612 64.788 27.5773 63.5987C27.9893 64.2387 28.3267 64.812 28.7107 65.352C30.008 67.18 31.652 67.7947 33.8253 67.3C34.936 67.048 35.7573 66.4053 36.0373 65.312C36.2813 64.3547 36.4187 63.3453 36.4213 62.3573C36.4507 54.292 36.4387 46.2267 36.4387 38.16C36.4387 37.5236 36.748 37.2044 37.3667 37.2027C39.344 37.2027 41.3213 37.2173 43.2987 37.1933C43.8173 37.1867 43.9853 37.3427 43.984 37.8733C43.9667 46.3387 43.98 54.804 43.9613 63.2707ZM68.02 72.9587C62.3907 75.1307 56.892 74.6667 51.8493 71.124C50.192 69.96 48.9707 68.3813 48.012 66.484C50.092 65.28 52.0853 64.1267 54.0973 62.9613C54.552 63.5627 54.94 64.1293 55.38 64.652C57.496 67.1653 60.2173 67.8973 63.3587 67.2733C63.912 67.164 64.468 66.9227 64.952 66.6267C66.9693 65.3947 67.2333 62.7253 65.432 61.196C64.6493 60.532 63.7 60.0347 62.7667 59.5853C61.0067 58.7373 59.156 58.068 57.432 57.156C56.0493 56.424 54.7027 55.5573 53.5067 54.5533C48.904 50.6893 48.576 40.94 56.2027 37.748C58.364 36.844 60.6227 36.6573 62.9387 36.8587C66.704 37.1853 69.5733 38.9453 71.5627 42.152C71.6787 42.3373 71.7787 42.532 71.9413 42.82C70.004 44.0653 68.0907 45.2933 66.1307 46.5533C65.8267 46.12 65.5613 45.7187 65.272 45.3333C64.056 43.7187 62.42 43.1307 60.4573 43.4427C59.1747 43.6467 58.216 44.332 57.8493 45.62C57.4827 46.9053 57.6787 48.136 58.7213 49.0387C59.3827 49.612 60.1627 50.0827 60.9533 50.4653C62.532 51.2293 64.1627 51.884 65.7573 52.616C67.5387 53.4347 69.1987 54.4413 70.7427 55.6707C75.5067 59.4627 75.9933 69.8813 68.02 72.9587Z" fill="#27AE60"/>
</svg>
