<svg width="61" height="81" viewBox="0 0 61 81" fill="none" xmlns="http://www.w3.org/2000/svg">
<g clip-path="url(#clip0_417_5549)">
<path d="M60.0665 80.4999L49.8604 65.039C44.2401 56.5342 32.7991 39.2083 24.4329 26.5197C16.0667 13.8312 9.07285 3.29749 8.88382 3.09587C8.21594 2.36497 7.78748 2.26416 5.21676 2.26416C3.03668 2.26416 2.83505 2.28936 2.31839 2.5414C2.01595 2.70522 1.58749 3.04546 1.38587 3.31009L0.99522 3.80156L0.958675 29.0778L0.933472 54.3415L1.19811 54.9086C1.38713 55.2741 1.66436 55.5891 2.04241 55.8285L2.62209 56.194H4.80216C6.705 56.194 7.05785 56.1562 7.4611 55.9545C7.99037 55.6773 8.2424 55.4253 8.57004 54.8078C8.79687 54.3793 8.80947 53.6484 8.84728 35.4908C8.87248 25.1209 8.92289 16.6275 8.97329 16.6401C8.99976 16.6401 18.7169 30.585 31.3714 48.0155C34.7662 52.692 60.0677 80.4987 60.0677 80.4987L60.0665 80.4999Z" fill="#27AE60"/>
<path d="M47.2898 0.752032C46.8739 0.525203 46.5463 0.5 44.6813 0.5C42.7028 0.5 42.5138 0.525203 41.9971 0.789837C41.3922 1.11748 40.9512 1.67195 40.7496 2.37764C40.6739 2.66748 40.6235 8.65324 40.6235 19.3003V35.7694L44.6308 41.8937L48.6256 48.0181L48.6634 25.363C48.6886 9.57441 48.6634 2.56918 48.5625 2.24154C48.3861 1.63666 47.8947 1.05699 47.2898 0.754552V0.752032Z" fill="#27AE60"/>
</g>
<defs>
<clipPath id="clip0_417_5549">
<rect width="59.133" height="80" fill="white" transform="translate(0.933472 0.5)"/>
</clipPath>
</defs>
</svg>
