<svg width="81" height="73" viewBox="0 0 81 73" fill="none" xmlns="http://www.w3.org/2000/svg">
<path d="M40.5 42.2144C38.9845 42.2144 37.531 41.6123 36.4594 40.5407C35.3878 39.469 34.7857 38.0156 34.7857 36.5001C34.7857 34.9845 35.3878 33.5311 36.4594 32.4595C37.531 31.3878 38.9845 30.7858 40.5 30.7858C42.0155 30.7858 43.469 31.3878 44.5406 32.4595C45.6122 33.5311 46.2143 34.9845 46.2143 36.5001C46.2143 38.0156 45.6122 39.469 44.5406 40.5407C43.469 41.6123 42.0155 42.2144 40.5 42.2144ZM38.4886 53.6201C39.1552 54.4201 39.8257 55.1972 40.5 55.9401C41.1743 55.1972 41.8448 54.4239 42.5114 53.6201C41.1706 53.6485 39.8294 53.6485 38.4886 53.6201ZM30.8886 53.1439C27.9631 52.8394 25.0569 52.3714 22.1838 51.742C21.8981 53.0753 21.681 54.3705 21.5362 55.6124C20.8124 61.6429 21.8219 65.3077 23.3571 66.1915C24.8924 67.0791 28.5686 66.1191 33.4333 62.481C34.4352 61.7305 35.4448 60.8963 36.4581 59.9858C34.4752 57.811 32.6158 55.5268 30.8886 53.1439ZM58.8162 51.742C56.0848 52.3515 53.1667 52.8239 50.1114 53.1439C48.3842 55.5268 46.5248 57.811 44.5419 59.9858C45.5552 60.9001 46.5648 61.7305 47.5667 62.481C52.4314 66.1191 56.1076 67.0791 57.6429 66.1915C59.1781 65.3077 60.1838 61.6429 59.4676 55.6124C59.3104 54.3132 59.0943 53.0217 58.82 51.742H58.8162ZM64.34 50.2677C66.5381 60.321 65.3838 68.3248 60.5 71.1439C55.6162 73.9629 48.1076 70.961 40.5 64.0315C32.8924 70.961 25.3838 73.9591 20.5 71.1401C15.6162 68.321 14.4619 60.321 16.6562 50.2639C6.85048 47.1439 0.5 42.1382 0.5 36.5001C0.5 30.862 6.85048 25.8601 16.6562 22.7324C14.4619 12.6791 15.6162 4.6753 20.5 1.85625C25.3838 -0.962795 32.8924 2.03911 40.5 8.96863C48.1076 2.03911 55.6162 -0.958984 60.5 1.86006C65.3838 4.67911 66.5381 12.6791 64.3438 22.7363C74.1495 25.8563 80.5 30.862 80.5 36.5001C80.5 42.1382 74.1495 47.1401 64.3438 50.2677H64.34ZM36.4543 13.0143C35.4855 12.1374 34.4775 11.3048 33.4333 10.5191C28.5686 6.88101 24.8924 5.92101 23.3571 6.80863C21.8219 7.69244 20.8162 11.3572 21.5324 17.3877C21.6848 18.6334 21.8981 19.9248 22.18 21.2582C25.0544 20.6286 27.9618 20.1605 30.8886 19.8563C32.6981 17.3686 34.5648 15.0791 36.4581 13.0143H36.4543ZM50.1114 19.8563C53.1667 20.1763 56.0848 20.6524 58.8162 21.2582C59.1019 19.9248 59.319 18.6296 59.4638 17.3877C60.1876 11.3572 59.1781 7.69244 57.6429 6.80863C56.1076 5.92101 52.4314 6.88101 47.5667 10.5191C46.5212 11.3047 45.5119 12.1373 44.5419 13.0143C46.4352 15.0791 48.3019 17.3686 50.1114 19.8563ZM42.5114 19.3801C41.8448 18.5801 41.1743 17.8029 40.5 17.0601C39.8257 17.8029 39.1552 18.5763 38.4886 19.3801C39.8294 19.3516 41.1706 19.3516 42.5114 19.3801ZM26.679 46.801C25.984 45.6547 25.3134 44.4938 24.6676 43.3191C24.3057 44.2982 23.9705 45.262 23.6657 46.2182C24.6448 46.4315 25.6505 46.6258 26.6752 46.801H26.679ZM34.039 47.6924C38.3404 48.0119 42.6596 48.0119 46.961 47.6924C49.3884 44.1265 51.548 40.3855 53.4219 36.5001C51.548 32.6146 49.3884 28.8736 46.961 25.3077C42.6596 24.9882 38.3404 24.9882 34.039 25.3077C31.6116 28.8736 29.452 32.6146 27.5781 36.5001C29.452 40.3855 31.6116 44.1265 34.039 47.6924ZM56.3324 29.681C56.6943 28.702 57.0295 27.7382 57.3343 26.782C56.3356 26.5652 55.3322 26.3709 54.3248 26.1991C55.0185 27.3454 55.6879 28.5063 56.3324 29.681ZM18.1381 28.2601C16.8429 28.6791 15.6162 29.1363 14.4657 29.6315C8.88476 32.0239 6.21429 34.7286 6.21429 36.5001C6.21429 38.2715 8.88095 40.9763 14.4657 43.3686C15.6162 43.8639 16.8429 44.321 18.1381 44.7401C18.9838 42.0734 20.0314 39.3077 21.281 36.5001C20.0803 33.8142 19.031 31.0633 18.1381 28.2601ZM23.6619 26.782C23.9705 27.7344 24.3057 28.702 24.6676 29.6772C25.3134 28.5038 25.9841 27.3441 26.679 26.1991C25.6505 26.3743 24.6448 26.5686 23.6657 26.782H23.6619ZM62.8619 44.7401C64.1571 44.321 65.3838 43.8639 66.5343 43.3686C72.1152 40.9763 74.7857 38.2715 74.7857 36.5001C74.7857 34.7286 72.119 32.0239 66.5343 29.6315C65.3315 29.1191 64.1061 28.6615 62.8619 28.2601C62.0162 30.9267 60.9686 33.6924 59.719 36.5001C60.9686 39.3077 62.0162 42.0696 62.8619 44.7401ZM57.3381 46.2182C57.0295 45.2658 56.6943 44.2982 56.3324 43.3229C55.6866 44.4964 55.0159 45.656 54.321 46.801C55.3495 46.6258 56.3552 46.4315 57.3343 46.2182H57.3381Z" fill="#27AE60"/>
</svg>
