<svg width="67" height="81" viewBox="0 0 67 81" fill="none" xmlns="http://www.w3.org/2000/svg">
<path d="M41.9805 70.1525C42.3061 69.889 42.6168 69.6007 42.9598 69.3621C46.1264 67.15 46.7105 63.9287 44.5058 60.7621C43.2282 58.9277 41.451 57.7421 39.383 57.0312C35.6348 55.7462 31.7946 55.5076 27.9022 56.2731C27.6661 56.3204 27.4449 56.4272 27.2212 56.5043C27.4971 57.8788 27.8351 59.1887 28.0116 60.5185C29.237 69.7026 23.2642 78.1983 14.2341 80.1693C11.9723 80.664 9.71288 80.6018 7.48831 79.9953C5.74344 79.5206 4.74425 78.1809 4.13528 76.5901C2.60915 72.6008 3.57603 68.9371 6.22067 65.85C7.97299 63.8044 10.1155 62.0272 12.3103 60.4489C14.9475 58.5524 17.8307 56.9939 20.719 55.2217C19.7993 54.5258 18.8274 53.7851 17.8506 53.0518C14.1198 50.2556 10.2622 47.606 6.70287 44.6084C4.81136 43.0151 3.26285 40.9322 1.85851 38.8667C-0.31636 35.6728 -0.467979 32.1806 0.98856 28.5864C2.96707 23.7073 6.24553 19.8025 10.2001 16.4743C19.1381 8.95796 29.3439 3.86255 40.7451 1.36456C46.8372 0.0298145 52.9741 0.136694 58.9221 2.41844C59.2303 2.53775 59.541 2.65208 59.8343 2.79873C66.242 5.96534 68.0093 9.92981 66.4135 16.8993C64.5842 24.8929 59.2427 30.2642 51.9948 33.6794C46.2283 36.3961 40.0865 37.5618 33.6787 36.9106C30.4798 36.585 27.6711 35.4118 25.5434 32.9387C24.9991 32.3048 24.6909 31.4548 24.3504 30.6693C24.2683 30.4829 24.415 30.0654 24.589 29.9386C24.7307 29.8367 25.1631 29.9237 25.3123 30.0778C28.9288 33.8086 33.45 33.9155 38.1104 33.1897C45.7411 32.0016 52.3751 28.8449 57.4481 22.8647C59.5658 20.3692 61.1243 17.5729 61.1839 14.1652C61.2287 11.6523 60.2096 9.61912 57.8955 8.67957C55.825 7.83945 53.593 7.16587 51.3809 6.95459C45.4702 6.39037 39.7957 7.7102 34.3249 9.87513C27.1392 12.7161 20.3983 16.3649 14.607 21.5473C12.9615 23.0213 11.4602 24.7338 10.21 26.5557C6.53882 31.9072 7.03345 37.3282 11.6243 41.9116C13.6028 43.8876 15.8796 45.5678 18.0147 47.3897C20.0876 49.157 22.178 50.9043 24.2062 52.7238C24.7207 53.1861 25.1184 53.1712 25.7323 53.0369C30.6836 51.9582 35.6547 51.5456 40.4543 53.6036C44.4437 55.3137 47.1629 58.2069 47.8911 62.6561C48.4255 65.9246 46.5191 69.2304 43.4171 70.3936C43.0219 70.5428 42.5521 70.5005 42.1172 70.5452C42.0699 70.4135 42.0227 70.2818 41.9755 70.15L41.9805 70.1525ZM23.0753 58.3113C19.2922 60.2177 15.8149 62.3652 13.1057 65.4871C11.9151 66.8616 10.9855 68.527 10.2224 70.1898C9.59109 71.5618 9.18595 73.262 10.4262 74.4998C11.6641 75.7376 13.3095 75.2255 14.7561 74.7409C21.236 72.561 25.0911 65.0024 23.0778 58.3113H23.0753Z" fill="#27AE60"/>
</svg>
