<svg width="81" height="49" viewBox="0 0 81 49" fill="none" xmlns="http://www.w3.org/2000/svg">
<path d="M20.5234 15.7849C22.2418 6.97966 29.6893 0.674965 38.3153 0.350268C46.7622 0.0324243 53.7463 2.81554 59.225 9.39855C65.0991 16.4559 74.0114 16.8334 80.5 9.42227C80.3034 10.1465 80.1427 10.8829 79.9044 11.5934C77.34 19.2433 70.135 24.3467 62.0435 24.5022C53.7916 24.6609 47.0436 21.8018 41.692 15.4365C36.0187 8.68906 27.2788 7.83252 20.5234 15.7849Z" fill="#27AE60"/>
<path d="M0.500527 39.9105C1.53471 31.7346 9.34534 24.906 17.7126 24.4463C26.3492 23.9714 33.5468 26.7129 39.2048 33.4509C44.9855 40.3348 53.7481 40.9516 60.4276 33.0471C59.5768 37.4985 57.5601 40.9616 54.4022 43.7695C47.9979 49.4643 37.2782 50.3704 29.0169 45.588C26.3629 44.0515 24.0458 41.8107 21.8773 39.5974C18.4816 36.1322 14.8314 33.5468 9.67267 34.2204C5.92549 34.7096 3.01113 36.6198 0.5 39.91L0.500527 39.9105Z" fill="#27AE60"/>
</svg>
