<svg width="81" height="81" viewBox="0 0 81 81" fill="none" xmlns="http://www.w3.org/2000/svg">
<path d="M0.5 0.5V80.5H80.5V0.5H0.5ZM71.56 42.152C71.676 42.3373 71.776 42.532 71.9387 42.82C70.0013 44.0653 68.088 45.2933 66.128 46.5533C65.824 46.12 65.5587 45.7187 65.2693 45.3333C64.0533 43.7187 62.4173 43.1307 60.4547 43.4427C59.172 43.6467 58.2133 44.332 57.8467 45.62C57.48 46.9053 57.676 48.136 58.7187 49.0387C59.38 49.612 60.16 50.0827 60.9507 50.4653C62.5293 51.2293 64.16 51.884 65.7547 52.616C67.536 53.4347 69.196 54.4413 70.74 55.6707C75.504 59.4627 75.9933 69.88 68.02 72.9573C62.3907 75.1293 56.892 74.6653 51.8493 71.1227C50.192 69.9587 48.9707 68.38 48.012 66.4827C50.092 65.2787 52.0853 64.1253 54.0973 62.96C54.552 63.5613 54.94 64.128 55.38 64.6507C57.496 67.164 60.2173 67.896 63.3587 67.272C63.912 67.1627 64.468 66.9213 64.952 66.6253C66.9693 65.3933 67.2333 62.724 65.432 61.1947C64.6493 60.5307 63.7 60.0333 62.7667 59.584C61.0067 58.736 59.156 58.0667 57.432 57.1547C56.0493 56.4227 54.7027 55.556 53.5067 54.552C48.904 50.688 48.576 40.9387 56.2027 37.7467C56.752 37.5173 57.308 37.3333 57.8693 37.1907C59.516 36.772 61.2107 36.7067 62.9387 36.8573C63.6427 36.9187 64.3147 37.0293 64.956 37.1907C67.7453 37.892 69.9453 39.5427 71.5627 42.1493L71.56 42.152ZM20.9533 37.604C20.9507 37.348 21.0107 37.2347 21.1707 37.192C21.232 37.176 21.3053 37.1693 21.3973 37.1693C29.9333 37.1773 38.4693 37.1787 47.0053 37.168C47.1027 37.168 47.18 37.176 47.2427 37.192C47.4213 37.24 47.4773 37.3667 47.4747 37.6387C47.456 39.3653 47.4573 41.092 47.4747 42.8187C47.4787 43.1707 47.364 43.256 47.0267 43.2547C46.0107 43.2507 44.9947 43.2493 43.9787 43.2493C42.1653 43.2493 40.3533 43.2493 38.54 43.236C38.0733 43.232 37.9387 43.3373 37.94 43.824C37.956 52.3627 37.948 64.6413 37.9627 73.2627C37.9627 73.36 37.9627 73.4587 37.9627 73.5547C37.9627 74.0427 37.8613 74.1907 37.3493 74.184C36.116 74.1653 34.8827 74.1613 33.6493 74.164C33.1133 74.164 32.5787 74.168 32.0427 74.172C31.6733 74.1747 31.304 74.1773 30.936 74.1813C30.6867 74.184 30.5533 74.1373 30.4853 74.016C30.44 73.9333 30.4227 73.8187 30.4227 73.656C30.4267 72.2973 30.4293 69.4373 30.4307 66.9573C30.4307 65.476 30.4307 64.128 30.432 63.3173C30.432 61.1467 30.432 58.976 30.432 56.804C30.432 55.7187 30.432 54.6333 30.432 53.548C30.432 50.292 30.4307 47.0347 30.444 43.7787C30.4453 43.3333 30.324 43.2373 29.896 43.24C27.1 43.26 24.304 43.2373 21.508 43.2627C21.0387 43.2667 20.948 43.1213 20.9547 42.688C20.9787 40.9947 20.9747 39.3 20.956 37.6067L20.9533 37.604Z" fill="#27AE60"/>
</svg>
